%TF.GenerationSoftware,KiCad,Pcbnew,(6.0.4)*%
%TF.CreationDate,2022-09-11T20:29:28+10:00*%
%TF.ProjectId,plate,706c6174-652e-46b6-9963-61645f706362,rev?*%
%TF.SameCoordinates,Original*%
%TF.FileFunction,Legend,Top*%
%TF.FilePolarity,Positive*%
%FSLAX46Y46*%
G04 Gerber Fmt 4.6, Leading zero omitted, Abs format (unit mm)*
G04 Created by KiCad (PCBNEW (6.0.4)) date 2022-09-11 20:29:28*
%MOMM*%
%LPD*%
G01*
G04 APERTURE LIST*
%ADD10C,0.300000*%
G04 APERTURE END LIST*
D10*
X23428571Y1545238D02*
X23428571Y-73809D01*
X23523809Y-264285D01*
X23619047Y-359523D01*
X23809523Y-454761D01*
X24190476Y-454761D01*
X24380952Y-359523D01*
X24476190Y-264285D01*
X24571428Y-73809D01*
X24571428Y1545238D01*
X25523809Y878571D02*
X25523809Y-454761D01*
X25523809Y688095D02*
X25619047Y783333D01*
X25809523Y878571D01*
X26095238Y878571D01*
X26285714Y783333D01*
X26380952Y592857D01*
X26380952Y-454761D01*
X27047619Y878571D02*
X27809523Y878571D01*
X27333333Y1545238D02*
X27333333Y-169047D01*
X27428571Y-359523D01*
X27619047Y-454761D01*
X27809523Y-454761D01*
X28476190Y-454761D02*
X28476190Y878571D01*
X28476190Y1545238D02*
X28380952Y1450000D01*
X28476190Y1354761D01*
X28571428Y1450000D01*
X28476190Y1545238D01*
X28476190Y1354761D01*
X29142857Y878571D02*
X29904761Y878571D01*
X29428571Y1545238D02*
X29428571Y-169047D01*
X29523809Y-359523D01*
X29714285Y-454761D01*
X29904761Y-454761D01*
X30857142Y-454761D02*
X30666666Y-359523D01*
X30571428Y-169047D01*
X30571428Y1545238D01*
X32380952Y-359523D02*
X32190476Y-454761D01*
X31809523Y-454761D01*
X31619047Y-359523D01*
X31523809Y-169047D01*
X31523809Y592857D01*
X31619047Y783333D01*
X31809523Y878571D01*
X32190476Y878571D01*
X32380952Y783333D01*
X32476190Y592857D01*
X32476190Y402380D01*
X31523809Y211904D01*
X34190476Y-454761D02*
X34190476Y1545238D01*
X34190476Y-359523D02*
X34000000Y-454761D01*
X33619047Y-454761D01*
X33428571Y-359523D01*
X33333333Y-264285D01*
X33238095Y-73809D01*
X33238095Y497619D01*
X33333333Y688095D01*
X33428571Y783333D01*
X33619047Y878571D01*
X34000000Y878571D01*
X34190476Y783333D01*
X35142857Y-454761D02*
X35142857Y1545238D01*
X36285714Y-454761D02*
X35428571Y688095D01*
X36285714Y1545238D02*
X35142857Y402380D01*
X37809523Y592857D02*
X38095238Y497619D01*
X38190476Y402380D01*
X38285714Y211904D01*
X38285714Y-73809D01*
X38190476Y-264285D01*
X38095238Y-359523D01*
X37904761Y-454761D01*
X37142857Y-454761D01*
X37142857Y1545238D01*
X37809523Y1545238D01*
X38000000Y1450000D01*
X38095238Y1354761D01*
X38190476Y1164285D01*
X38190476Y973809D01*
X38095238Y783333D01*
X38000000Y688095D01*
X37809523Y592857D01*
X37142857Y592857D01*
X40190476Y-454761D02*
X39047619Y-454761D01*
X39619047Y-454761D02*
X39619047Y1545238D01*
X39428571Y1259523D01*
X39238095Y1069047D01*
X39047619Y973809D01*
X43809523Y497619D02*
X43714285Y592857D01*
X43523809Y688095D01*
X43333333Y688095D01*
X43142857Y592857D01*
X43047619Y497619D01*
X42952380Y307142D01*
X42952380Y116666D01*
X43047619Y-73809D01*
X43142857Y-169047D01*
X43333333Y-264285D01*
X43523809Y-264285D01*
X43714285Y-169047D01*
X43809523Y-73809D01*
X43809523Y688095D02*
X43809523Y-73809D01*
X43904761Y-169047D01*
X43999999Y-169047D01*
X44190476Y-73809D01*
X44285714Y116666D01*
X44285714Y592857D01*
X44095238Y878571D01*
X43809523Y1069047D01*
X43428571Y1164285D01*
X43047619Y1069047D01*
X42761904Y878571D01*
X42571428Y592857D01*
X42476190Y211904D01*
X42571428Y-169047D01*
X42761904Y-454761D01*
X43047619Y-645238D01*
X43428571Y-740476D01*
X43809523Y-645238D01*
X44095238Y-454761D01*
X45999999Y-454761D02*
X45999999Y1545238D01*
X45999999Y-359523D02*
X45809523Y-454761D01*
X45428571Y-454761D01*
X45238095Y-359523D01*
X45142857Y-264285D01*
X45047619Y-73809D01*
X45047619Y497619D01*
X45142857Y688095D01*
X45238095Y783333D01*
X45428571Y878571D01*
X45809523Y878571D01*
X45999999Y783333D01*
X46952380Y878571D02*
X46952380Y-835714D01*
X46857142Y-1026190D01*
X46666666Y-1121428D01*
X46571428Y-1121428D01*
X46952380Y1545238D02*
X46857142Y1450000D01*
X46952380Y1354761D01*
X47047619Y1450000D01*
X46952380Y1545238D01*
X46952380Y1354761D01*
X48761904Y-454761D02*
X48761904Y592857D01*
X48666666Y783333D01*
X48476190Y878571D01*
X48095238Y878571D01*
X47904761Y783333D01*
X48761904Y-359523D02*
X48571428Y-454761D01*
X48095238Y-454761D01*
X47904761Y-359523D01*
X47809523Y-169047D01*
X47809523Y21428D01*
X47904761Y211904D01*
X48095238Y307142D01*
X48571428Y307142D01*
X48761904Y402380D01*
X49619047Y-359523D02*
X49809523Y-454761D01*
X50190476Y-454761D01*
X50380952Y-359523D01*
X50476190Y-169047D01*
X50476190Y-73809D01*
X50380952Y116666D01*
X50190476Y211904D01*
X49904761Y211904D01*
X49714285Y307142D01*
X49619047Y497619D01*
X49619047Y592857D01*
X49714285Y783333D01*
X49904761Y878571D01*
X50190476Y878571D01*
X50380952Y783333D01*
X51333333Y-454761D02*
X51333333Y1545238D01*
X51523809Y307142D02*
X52095238Y-454761D01*
X52095238Y878571D02*
X51333333Y116666D01*
X54380952Y1640476D02*
X52666666Y-930952D01*
X55428571Y1545238D02*
X55619047Y1545238D01*
X55809523Y1450000D01*
X55904761Y1354761D01*
X55999999Y1164285D01*
X56095238Y783333D01*
X56095238Y307142D01*
X55999999Y-73809D01*
X55904761Y-264285D01*
X55809523Y-359523D01*
X55619047Y-454761D01*
X55428571Y-454761D01*
X55238095Y-359523D01*
X55142857Y-264285D01*
X55047619Y-73809D01*
X54952380Y307142D01*
X54952380Y783333D01*
X55047619Y1164285D01*
X55142857Y1354761D01*
X55238095Y1450000D01*
X55428571Y1545238D01*
X57238095Y688095D02*
X57047619Y783333D01*
X56952380Y878571D01*
X56857142Y1069047D01*
X56857142Y1164285D01*
X56952380Y1354761D01*
X57047619Y1450000D01*
X57238095Y1545238D01*
X57619047Y1545238D01*
X57809523Y1450000D01*
X57904761Y1354761D01*
X57999999Y1164285D01*
X57999999Y1069047D01*
X57904761Y878571D01*
X57809523Y783333D01*
X57619047Y688095D01*
X57238095Y688095D01*
X57047619Y592857D01*
X56952380Y497619D01*
X56857142Y307142D01*
X56857142Y-73809D01*
X56952380Y-264285D01*
X57047619Y-359523D01*
X57238095Y-454761D01*
X57619047Y-454761D01*
X57809523Y-359523D01*
X57904761Y-264285D01*
X57999999Y-73809D01*
X57999999Y307142D01*
X57904761Y497619D01*
X57809523Y592857D01*
X57619047Y688095D01*
X59714285Y878571D02*
X59714285Y-454761D01*
X59238095Y1640476D02*
X58761904Y211904D01*
X59999999Y211904D01*
X61619047Y1545238D02*
X61238095Y1545238D01*
X61047619Y1450000D01*
X60952380Y1354761D01*
X60761904Y1069047D01*
X60666666Y688095D01*
X60666666Y-73809D01*
X60761904Y-264285D01*
X60857142Y-359523D01*
X61047619Y-454761D01*
X61428571Y-454761D01*
X61619047Y-359523D01*
X61714285Y-264285D01*
X61809523Y-73809D01*
X61809523Y402380D01*
X61714285Y592857D01*
X61619047Y688095D01*
X61428571Y783333D01*
X61047619Y783333D01*
X60857142Y688095D01*
X60761904Y592857D01*
X60666666Y402380D01*
X63619047Y1545238D02*
X62666666Y1545238D01*
X62571428Y592857D01*
X62666666Y688095D01*
X62857142Y783333D01*
X63333333Y783333D01*
X63523809Y688095D01*
X63619047Y592857D01*
X63714285Y402380D01*
X63714285Y-73809D01*
X63619047Y-264285D01*
X63523809Y-359523D01*
X63333333Y-454761D01*
X62857142Y-454761D01*
X62666666Y-359523D01*
X62571428Y-264285D01*
X64666666Y-454761D02*
X65047619Y-454761D01*
X65238095Y-359523D01*
X65333333Y-264285D01*
X65523809Y21428D01*
X65619047Y402380D01*
X65619047Y1164285D01*
X65523809Y1354761D01*
X65428571Y1450000D01*
X65238095Y1545238D01*
X64857142Y1545238D01*
X64666666Y1450000D01*
X64571428Y1354761D01*
X64476190Y1164285D01*
X64476190Y688095D01*
X64571428Y497619D01*
X64666666Y402380D01*
X64857142Y307142D01*
X65238095Y307142D01*
X65428571Y402380D01*
X65523809Y497619D01*
X65619047Y688095D01*
X67523809Y-454761D02*
X66380952Y-454761D01*
X66952380Y-454761D02*
X66952380Y1545238D01*
X66761904Y1259523D01*
X66571428Y1069047D01*
X66380952Y973809D01*
X69809523Y1354761D02*
X69904761Y1450000D01*
X70095238Y1545238D01*
X70571428Y1545238D01*
X70761904Y1450000D01*
X70857142Y1354761D01*
X70952380Y1164285D01*
X70952380Y973809D01*
X70857142Y688095D01*
X69714285Y-454761D01*
X70952380Y-454761D01*
X72190476Y1545238D02*
X72380952Y1545238D01*
X72571428Y1450000D01*
X72666666Y1354761D01*
X72761904Y1164285D01*
X72857142Y783333D01*
X72857142Y307142D01*
X72761904Y-73809D01*
X72666666Y-264285D01*
X72571428Y-359523D01*
X72380952Y-454761D01*
X72190476Y-454761D01*
X71999999Y-359523D01*
X71904761Y-264285D01*
X71809523Y-73809D01*
X71714285Y307142D01*
X71714285Y783333D01*
X71809523Y1164285D01*
X71904761Y1354761D01*
X71999999Y1450000D01*
X72190476Y1545238D01*
X73619047Y1354761D02*
X73714285Y1450000D01*
X73904761Y1545238D01*
X74380952Y1545238D01*
X74571428Y1450000D01*
X74666666Y1354761D01*
X74761904Y1164285D01*
X74761904Y973809D01*
X74666666Y688095D01*
X73523809Y-454761D01*
X74761904Y-454761D01*
X75523809Y1354761D02*
X75619047Y1450000D01*
X75809523Y1545238D01*
X76285714Y1545238D01*
X76476190Y1450000D01*
X76571428Y1354761D01*
X76666666Y1164285D01*
X76666666Y973809D01*
X76571428Y688095D01*
X75428571Y-454761D01*
X76666666Y-454761D01*
M02*
