%TF.GenerationSoftware,KiCad,Pcbnew,(6.0.4)*%
%TF.CreationDate,2022-09-11T20:29:28+10:00*%
%TF.ProjectId,plate,706c6174-652e-46b6-9963-61645f706362,rev?*%
%TF.SameCoordinates,Original*%
%TF.FileFunction,Profile,NP*%
%FSLAX46Y46*%
G04 Gerber Fmt 4.6, Leading zero omitted, Abs format (unit mm)*
G04 Created by KiCad (PCBNEW (6.0.4)) date 2022-09-11 20:29:28*
%MOMM*%
%LPD*%
G01*
G04 APERTURE LIST*
%TA.AperFunction,Profile*%
%ADD10C,0.200000*%
%TD*%
G04 APERTURE END LIST*
D10*
X59675000Y-22075000D02*
X59675000Y-35075000D01*
X2525000Y-92225000D02*
G75*
G03*
X3025000Y-92725000I500000J0D01*
G01*
X168925000Y-41125000D02*
G75*
G03*
X168425000Y-40625000I-500000J0D01*
G01*
X168925000Y-54125000D02*
X168925000Y-41125000D01*
X97775000Y-35075000D02*
G75*
G03*
X98275000Y-35575000I500000J0D01*
G01*
X225575000Y-73675000D02*
G75*
G03*
X226075000Y-73175000I0J500000D01*
G01*
X130325000Y-59675000D02*
X117325000Y-59675000D01*
X135875000Y-79225000D02*
X135875000Y-92225000D01*
X212575000Y-59675000D02*
G75*
G03*
X212075000Y-60175000I0J-500000D01*
G01*
X2525000Y-3025000D02*
X2525000Y-16025000D01*
X154925000Y-41125000D02*
X154925000Y-54125000D01*
X250675000Y-16525000D02*
X263675000Y-16525000D01*
X92725000Y-3025000D02*
G75*
G03*
X92225000Y-2525000I-500000J0D01*
G01*
X193525000Y-92725000D02*
X206525000Y-92725000D01*
X135875000Y-35075000D02*
G75*
G03*
X136375000Y-35575000I500000J0D01*
G01*
X250175000Y-92225000D02*
G75*
G03*
X250675000Y-92725000I500000J0D01*
G01*
X73175000Y-73675000D02*
G75*
G03*
X73675000Y-73175000I0J500000D01*
G01*
X263675000Y-59675000D02*
X250675000Y-59675000D01*
X130825000Y-79225000D02*
G75*
G03*
X130325000Y-78725000I-500000J0D01*
G01*
X78725000Y-60175000D02*
X78725000Y-73175000D01*
X155425000Y-73675000D02*
X168425000Y-73675000D01*
X111775000Y-73175000D02*
X111775000Y-60175000D01*
X35575000Y-54125000D02*
X35575000Y-41125000D01*
X22075000Y-54625000D02*
X35075000Y-54625000D01*
X35575000Y-60175000D02*
G75*
G03*
X35075000Y-59675000I-500000J0D01*
G01*
X187475000Y-40625000D02*
X174475000Y-40625000D01*
X16525000Y-54125000D02*
X16525000Y-41125000D01*
X250175000Y-79225000D02*
X250175000Y-92225000D01*
X193025000Y-54125000D02*
G75*
G03*
X193525000Y-54625000I500000J0D01*
G01*
X79225000Y-2525000D02*
G75*
G03*
X78725000Y-3025000I0J-500000D01*
G01*
X264175000Y-60175000D02*
G75*
G03*
X263675000Y-59675000I-500000J0D01*
G01*
X231125000Y-35075000D02*
G75*
G03*
X231625000Y-35575000I500000J0D01*
G01*
X117325000Y-2525000D02*
G75*
G03*
X116825000Y-3025000I0J-500000D01*
G01*
X98275000Y-54625000D02*
X111275000Y-54625000D01*
X225575000Y-40625000D02*
X212575000Y-40625000D01*
X231625000Y-35575000D02*
X244625000Y-35575000D01*
X102250000Y-92225000D02*
X102250000Y-79225000D01*
X263675000Y-16525000D02*
G75*
G03*
X264175000Y-16025000I0J500000D01*
G01*
X40625000Y-79225000D02*
X40625000Y-92225000D01*
X21575000Y-79225000D02*
X21575000Y-92225000D01*
X73175000Y-78725000D02*
X60175000Y-78725000D01*
X35575000Y-35075000D02*
X35575000Y-22075000D01*
X54125000Y-40625000D02*
X41125000Y-40625000D01*
X212575000Y-21575000D02*
G75*
G03*
X212075000Y-22075000I0J-500000D01*
G01*
X155425000Y-40625000D02*
G75*
G03*
X154925000Y-41125000I0J-500000D01*
G01*
X154925000Y-54125000D02*
G75*
G03*
X155425000Y-54625000I500000J0D01*
G01*
X92225000Y-16525000D02*
G75*
G03*
X92725000Y-16025000I0J500000D01*
G01*
X154925000Y-60175000D02*
X154925000Y-73175000D01*
X212075000Y-41125000D02*
X212075000Y-54125000D01*
X79225000Y-16525000D02*
X92225000Y-16525000D01*
X207025000Y-60175000D02*
G75*
G03*
X206525000Y-59675000I-500000J0D01*
G01*
X40625000Y-92225000D02*
G75*
G03*
X41125000Y-92725000I500000J0D01*
G01*
X156512000Y-77725000D02*
G75*
G03*
X156012000Y-78225000I0J-500000D01*
G01*
X35075000Y-59675000D02*
X22075000Y-59675000D01*
X212075000Y-54125000D02*
G75*
G03*
X212575000Y-54625000I500000J0D01*
G01*
X3025000Y-40625000D02*
G75*
G03*
X2525000Y-41125000I0J-500000D01*
G01*
X40625000Y-41125000D02*
X40625000Y-54125000D01*
X88250000Y-92225000D02*
G75*
G03*
X88750000Y-92725000I500000J0D01*
G01*
X3025000Y-54625000D02*
X16025000Y-54625000D01*
X168925000Y-22075000D02*
G75*
G03*
X168425000Y-21575000I-500000J0D01*
G01*
X250675000Y-59675000D02*
G75*
G03*
X250175000Y-60175000I0J-500000D01*
G01*
X16025000Y-54625000D02*
G75*
G03*
X16525000Y-54125000I0J500000D01*
G01*
X206525000Y-59675000D02*
X193525000Y-59675000D01*
X187475000Y-73675000D02*
G75*
G03*
X187975000Y-73175000I0J500000D01*
G01*
X54125000Y-2525000D02*
X41125000Y-2525000D01*
X187975000Y-54125000D02*
X187975000Y-41125000D01*
X111275000Y-73675000D02*
G75*
G03*
X111775000Y-73175000I0J500000D01*
G01*
X136375000Y-35575000D02*
X149375000Y-35575000D01*
X92725000Y-41125000D02*
G75*
G03*
X92225000Y-40625000I-500000J0D01*
G01*
X16025000Y-59675000D02*
X3025000Y-59675000D01*
X21575000Y-22075000D02*
X21575000Y-35075000D01*
X60175000Y-21575000D02*
G75*
G03*
X59675000Y-22075000I0J-500000D01*
G01*
X78725000Y-73175000D02*
G75*
G03*
X79225000Y-73675000I500000J0D01*
G01*
X265700000Y-98250000D02*
X1000000Y-98250000D01*
X35575000Y-16025000D02*
X35575000Y-3025000D01*
X168425000Y-40625000D02*
X155425000Y-40625000D01*
X130325000Y-92725000D02*
G75*
G03*
X130825000Y-92225000I0J500000D01*
G01*
X41125000Y-21575000D02*
G75*
G03*
X40625000Y-22075000I0J-500000D01*
G01*
X263675000Y-54625000D02*
G75*
G03*
X264175000Y-54125000I0J500000D01*
G01*
X104188000Y-77725000D02*
G75*
G03*
X103688000Y-78225000I0J-500000D01*
G01*
X21575000Y-60175000D02*
X21575000Y-73175000D01*
X156512000Y-92725000D02*
X162512000Y-92725000D01*
X41125000Y-16525000D02*
X54125000Y-16525000D01*
X2525000Y-16025000D02*
G75*
G03*
X3025000Y-16525000I500000J0D01*
G01*
X88250000Y-79225000D02*
X88250000Y-92225000D01*
X97775000Y-60175000D02*
X97775000Y-73175000D01*
X156012000Y-92225000D02*
G75*
G03*
X156512000Y-92725000I500000J0D01*
G01*
X92225000Y-40625000D02*
X79225000Y-40625000D01*
X73175000Y-59675000D02*
X60175000Y-59675000D01*
X149375000Y-92725000D02*
G75*
G03*
X149875000Y-92225000I0J500000D01*
G01*
X117325000Y-78725000D02*
G75*
G03*
X116825000Y-79225000I0J-500000D01*
G01*
X162512000Y-77725000D02*
X156512000Y-77725000D01*
X193025000Y-73175000D02*
G75*
G03*
X193525000Y-73675000I500000J0D01*
G01*
X73175000Y-21575000D02*
X60175000Y-21575000D01*
X231125000Y-79225000D02*
X231125000Y-92225000D01*
X35575000Y-73175000D02*
X35575000Y-60175000D01*
X212075000Y-35075000D02*
G75*
G03*
X212575000Y-35575000I500000J0D01*
G01*
X173975000Y-16025000D02*
G75*
G03*
X174475000Y-16525000I500000J0D01*
G01*
X225575000Y-59675000D02*
X212575000Y-59675000D01*
X116825000Y-73175000D02*
G75*
G03*
X117325000Y-73675000I500000J0D01*
G01*
X155425000Y-35575000D02*
X168425000Y-35575000D01*
X98275000Y-16525000D02*
X111275000Y-16525000D01*
X263675000Y-35575000D02*
G75*
G03*
X264175000Y-35075000I0J500000D01*
G01*
X41125000Y-35575000D02*
X54125000Y-35575000D01*
X193025000Y-60175000D02*
X193025000Y-73175000D01*
X212075000Y-3025000D02*
X212075000Y-16025000D01*
X98275000Y-40625000D02*
G75*
G03*
X97775000Y-41125000I0J-500000D01*
G01*
X149875000Y-79225000D02*
G75*
G03*
X149375000Y-78725000I-500000J0D01*
G01*
X226075000Y-92225000D02*
X226075000Y-79225000D01*
X78725000Y-35075000D02*
G75*
G03*
X79225000Y-35575000I500000J0D01*
G01*
X231125000Y-3025000D02*
X231125000Y-16025000D01*
X98275000Y-59675000D02*
G75*
G03*
X97775000Y-60175000I0J-500000D01*
G01*
X111275000Y-40625000D02*
X98275000Y-40625000D01*
X21575000Y-16025000D02*
G75*
G03*
X22075000Y-16525000I500000J0D01*
G01*
X130325000Y-16525000D02*
G75*
G03*
X130825000Y-16025000I0J500000D01*
G01*
X35075000Y-21575000D02*
X22075000Y-21575000D01*
X212575000Y-78725000D02*
G75*
G03*
X212075000Y-79225000I0J-500000D01*
G01*
X92225000Y-73675000D02*
G75*
G03*
X92725000Y-73175000I0J500000D01*
G01*
X98275000Y-21575000D02*
G75*
G03*
X97775000Y-22075000I0J-500000D01*
G01*
X149875000Y-54125000D02*
X149875000Y-41125000D01*
X244625000Y-59675000D02*
X231625000Y-59675000D01*
X187475000Y-54625000D02*
G75*
G03*
X187975000Y-54125000I0J500000D01*
G01*
X111775000Y-54125000D02*
X111775000Y-41125000D01*
X154925000Y-3025000D02*
X154925000Y-16025000D01*
X244625000Y-35575000D02*
G75*
G03*
X245125000Y-35075000I0J500000D01*
G01*
X244625000Y-2525000D02*
X231625000Y-2525000D01*
X226075000Y-79225000D02*
G75*
G03*
X225575000Y-78725000I-500000J0D01*
G01*
X3025000Y-78725000D02*
G75*
G03*
X2525000Y-79225000I0J-500000D01*
G01*
X193025000Y-22075000D02*
X193025000Y-35075000D01*
X79225000Y-59675000D02*
G75*
G03*
X78725000Y-60175000I0J-500000D01*
G01*
X225575000Y-16525000D02*
G75*
G03*
X226075000Y-16025000I0J500000D01*
G01*
X40625000Y-73175000D02*
G75*
G03*
X41125000Y-73675000I500000J0D01*
G01*
X206525000Y-16525000D02*
G75*
G03*
X207025000Y-16025000I0J500000D01*
G01*
X16025000Y-2525000D02*
X3025000Y-2525000D01*
X263675000Y-2525000D02*
X250675000Y-2525000D01*
X40625000Y-54125000D02*
G75*
G03*
X41125000Y-54625000I500000J0D01*
G01*
X266700000Y2000000D02*
X266700000Y-97250000D01*
X174475000Y-54625000D02*
X187475000Y-54625000D01*
X193525000Y-54625000D02*
X206525000Y-54625000D01*
X136375000Y-78725000D02*
G75*
G03*
X135875000Y-79225000I0J-500000D01*
G01*
X110188000Y-77725000D02*
X104188000Y-77725000D01*
X212575000Y-40625000D02*
G75*
G03*
X212075000Y-41125000I0J-500000D01*
G01*
X193025000Y-41125000D02*
X193025000Y-54125000D01*
X86812000Y-92225000D02*
X86812000Y-78225000D01*
X266700000Y2000000D02*
G75*
G03*
X265700000Y3000000I-1000000J0D01*
G01*
X35575000Y-3025000D02*
G75*
G03*
X35075000Y-2525000I-500000J0D01*
G01*
X193525000Y-16525000D02*
X206525000Y-16525000D01*
X264175000Y-3025000D02*
G75*
G03*
X263675000Y-2525000I-500000J0D01*
G01*
X80312000Y-77725000D02*
G75*
G03*
X79812000Y-78225000I0J-500000D01*
G01*
X231125000Y-73175000D02*
G75*
G03*
X231625000Y-73675000I500000J0D01*
G01*
X2525000Y-73175000D02*
G75*
G03*
X3025000Y-73675000I500000J0D01*
G01*
X41125000Y-92725000D02*
X54125000Y-92725000D01*
X135875000Y-73175000D02*
G75*
G03*
X136375000Y-73675000I500000J0D01*
G01*
X110188000Y-92725000D02*
G75*
G03*
X110688000Y-92225000I0J500000D01*
G01*
X212075000Y-16025000D02*
G75*
G03*
X212575000Y-16525000I500000J0D01*
G01*
X88750000Y-92725000D02*
X101750000Y-92725000D01*
X154925000Y-16025000D02*
G75*
G03*
X155425000Y-16525000I500000J0D01*
G01*
X88750000Y-78725000D02*
G75*
G03*
X88250000Y-79225000I0J-500000D01*
G01*
X16025000Y-40625000D02*
X3025000Y-40625000D01*
X54625000Y-22075000D02*
G75*
G03*
X54125000Y-21575000I-500000J0D01*
G01*
X179888000Y-92225000D02*
G75*
G03*
X180388000Y-92725000I500000J0D01*
G01*
X225575000Y-21575000D02*
X212575000Y-21575000D01*
X263675000Y-40625000D02*
X250675000Y-40625000D01*
X250175000Y-22075000D02*
X250175000Y-35075000D01*
X86312000Y-77725000D02*
X80312000Y-77725000D01*
X2525000Y-22075000D02*
X2525000Y-35075000D01*
X79225000Y-73675000D02*
X92225000Y-73675000D01*
X21575000Y-3025000D02*
X21575000Y-16025000D01*
X35075000Y-35575000D02*
G75*
G03*
X35575000Y-35075000I0J500000D01*
G01*
X250675000Y-92725000D02*
X263675000Y-92725000D01*
X206525000Y-54625000D02*
G75*
G03*
X207025000Y-54125000I0J500000D01*
G01*
X130825000Y-35075000D02*
X130825000Y-22075000D01*
X250675000Y-73675000D02*
X263675000Y-73675000D01*
X149375000Y-21575000D02*
X136375000Y-21575000D01*
X21575000Y-35075000D02*
G75*
G03*
X22075000Y-35575000I500000J0D01*
G01*
X73175000Y-35575000D02*
G75*
G03*
X73675000Y-35075000I0J500000D01*
G01*
X54125000Y-54625000D02*
G75*
G03*
X54625000Y-54125000I0J500000D01*
G01*
X54625000Y-41125000D02*
G75*
G03*
X54125000Y-40625000I-500000J0D01*
G01*
X178450000Y-92225000D02*
X178450000Y-79225000D01*
X231625000Y-2525000D02*
G75*
G03*
X231125000Y-3025000I0J-500000D01*
G01*
X187975000Y-41125000D02*
G75*
G03*
X187475000Y-40625000I-500000J0D01*
G01*
X245125000Y-92225000D02*
X245125000Y-79225000D01*
X180388000Y-92725000D02*
X186388000Y-92725000D01*
X0Y-97250000D02*
X0Y2000000D01*
X212575000Y-54625000D02*
X225575000Y-54625000D01*
X98275000Y-35575000D02*
X111275000Y-35575000D01*
X92725000Y-60175000D02*
G75*
G03*
X92225000Y-59675000I-500000J0D01*
G01*
X245125000Y-35075000D02*
X245125000Y-22075000D01*
X149875000Y-16025000D02*
X149875000Y-3025000D01*
X103688000Y-78225000D02*
X103688000Y-92225000D01*
X41125000Y-59675000D02*
G75*
G03*
X40625000Y-60175000I0J-500000D01*
G01*
X111275000Y-21575000D02*
X98275000Y-21575000D01*
X149875000Y-73175000D02*
X149875000Y-60175000D01*
X250175000Y-35075000D02*
G75*
G03*
X250675000Y-35575000I500000J0D01*
G01*
X226075000Y-54125000D02*
X226075000Y-41125000D01*
X168925000Y-16025000D02*
X168925000Y-3025000D01*
X168925000Y-3025000D02*
G75*
G03*
X168425000Y-2525000I-500000J0D01*
G01*
X98275000Y-73675000D02*
X111275000Y-73675000D01*
X92725000Y-54125000D02*
X92725000Y-41125000D01*
X22075000Y-21575000D02*
G75*
G03*
X21575000Y-22075000I0J-500000D01*
G01*
X173975000Y-60175000D02*
X173975000Y-73175000D01*
X174475000Y-59675000D02*
G75*
G03*
X173975000Y-60175000I0J-500000D01*
G01*
X264175000Y-16025000D02*
X264175000Y-3025000D01*
X135875000Y-92225000D02*
G75*
G03*
X136375000Y-92725000I500000J0D01*
G01*
X111775000Y-35075000D02*
X111775000Y-22075000D01*
X250675000Y-2525000D02*
G75*
G03*
X250175000Y-3025000I0J-500000D01*
G01*
X149375000Y-54625000D02*
G75*
G03*
X149875000Y-54125000I0J500000D01*
G01*
X41125000Y-54625000D02*
X54125000Y-54625000D01*
X263675000Y-78725000D02*
X250675000Y-78725000D01*
X149375000Y-59675000D02*
X136375000Y-59675000D01*
X225575000Y-35575000D02*
G75*
G03*
X226075000Y-35075000I0J500000D01*
G01*
X193525000Y-2525000D02*
G75*
G03*
X193025000Y-3025000I0J-500000D01*
G01*
X92225000Y-59675000D02*
X79225000Y-59675000D01*
X244625000Y-92725000D02*
G75*
G03*
X245125000Y-92225000I0J500000D01*
G01*
X92725000Y-16025000D02*
X92725000Y-3025000D01*
X60175000Y-16525000D02*
X73175000Y-16525000D01*
X130825000Y-54125000D02*
X130825000Y-41125000D01*
X149875000Y-60175000D02*
G75*
G03*
X149375000Y-59675000I-500000J0D01*
G01*
X135875000Y-16025000D02*
G75*
G03*
X136375000Y-16525000I500000J0D01*
G01*
X116825000Y-79225000D02*
X116825000Y-92225000D01*
X212575000Y-16525000D02*
X225575000Y-16525000D01*
X73675000Y-35075000D02*
X73675000Y-22075000D01*
X168425000Y-16525000D02*
G75*
G03*
X168925000Y-16025000I0J500000D01*
G01*
X59675000Y-35075000D02*
G75*
G03*
X60175000Y-35575000I500000J0D01*
G01*
X231125000Y-92225000D02*
G75*
G03*
X231625000Y-92725000I500000J0D01*
G01*
X54625000Y-16025000D02*
X54625000Y-3025000D01*
X97775000Y-3025000D02*
X97775000Y-16025000D01*
X3025000Y-35575000D02*
X16025000Y-35575000D01*
X116825000Y-92225000D02*
G75*
G03*
X117325000Y-92725000I500000J0D01*
G01*
X40625000Y-3025000D02*
X40625000Y-16025000D01*
X59675000Y-60175000D02*
X59675000Y-73175000D01*
X149375000Y-2525000D02*
X136375000Y-2525000D01*
X117325000Y-16525000D02*
X130325000Y-16525000D01*
X22075000Y-59675000D02*
G75*
G03*
X21575000Y-60175000I0J-500000D01*
G01*
X104188000Y-92725000D02*
X110188000Y-92725000D01*
X244625000Y-40625000D02*
X231625000Y-40625000D01*
X244625000Y-54625000D02*
G75*
G03*
X245125000Y-54125000I0J500000D01*
G01*
X22075000Y-2525000D02*
G75*
G03*
X21575000Y-3025000I0J-500000D01*
G01*
X116825000Y-35075000D02*
G75*
G03*
X117325000Y-35575000I500000J0D01*
G01*
X212575000Y-2525000D02*
G75*
G03*
X212075000Y-3025000I0J-500000D01*
G01*
X2525000Y-60175000D02*
X2525000Y-73175000D01*
X60175000Y-92725000D02*
X73175000Y-92725000D01*
X168425000Y-73675000D02*
G75*
G03*
X168925000Y-73175000I0J500000D01*
G01*
X174475000Y-16525000D02*
X187475000Y-16525000D01*
X149875000Y-35075000D02*
X149875000Y-22075000D01*
X59675000Y-16025000D02*
G75*
G03*
X60175000Y-16525000I500000J0D01*
G01*
X187475000Y-21575000D02*
X174475000Y-21575000D01*
X231625000Y-78725000D02*
G75*
G03*
X231125000Y-79225000I0J-500000D01*
G01*
X177950000Y-78725000D02*
X164950000Y-78725000D01*
X98275000Y-2525000D02*
G75*
G03*
X97775000Y-3025000I0J-500000D01*
G01*
X116825000Y-60175000D02*
X116825000Y-73175000D01*
X207025000Y-54125000D02*
X207025000Y-41125000D01*
X130825000Y-22075000D02*
G75*
G03*
X130325000Y-21575000I-500000J0D01*
G01*
X35575000Y-79225000D02*
G75*
G03*
X35075000Y-78725000I-500000J0D01*
G01*
X79225000Y-35575000D02*
X92225000Y-35575000D01*
X116825000Y-54125000D02*
G75*
G03*
X117325000Y-54625000I500000J0D01*
G01*
X54125000Y-73675000D02*
G75*
G03*
X54625000Y-73175000I0J500000D01*
G01*
X21575000Y-54125000D02*
G75*
G03*
X22075000Y-54625000I500000J0D01*
G01*
X136375000Y-16525000D02*
X149375000Y-16525000D01*
X207025000Y-79225000D02*
G75*
G03*
X206525000Y-78725000I-500000J0D01*
G01*
X245125000Y-22075000D02*
G75*
G03*
X244625000Y-21575000I-500000J0D01*
G01*
X168425000Y-35575000D02*
G75*
G03*
X168925000Y-35075000I0J500000D01*
G01*
X130825000Y-3025000D02*
G75*
G03*
X130325000Y-2525000I-500000J0D01*
G01*
X187975000Y-60175000D02*
G75*
G03*
X187475000Y-59675000I-500000J0D01*
G01*
X3025000Y-73675000D02*
X16025000Y-73675000D01*
X212575000Y-73675000D02*
X225575000Y-73675000D01*
X193525000Y-40625000D02*
G75*
G03*
X193025000Y-41125000I0J-500000D01*
G01*
X73675000Y-92225000D02*
X73675000Y-79225000D01*
X16525000Y-3025000D02*
G75*
G03*
X16025000Y-2525000I-500000J0D01*
G01*
X130825000Y-60175000D02*
G75*
G03*
X130325000Y-59675000I-500000J0D01*
G01*
X60175000Y-73675000D02*
X73175000Y-73675000D01*
X245125000Y-41125000D02*
G75*
G03*
X244625000Y-40625000I-500000J0D01*
G01*
X60175000Y-40625000D02*
G75*
G03*
X59675000Y-41125000I0J-500000D01*
G01*
X73675000Y-41125000D02*
G75*
G03*
X73175000Y-40625000I-500000J0D01*
G01*
X3025000Y-16525000D02*
X16025000Y-16525000D01*
X130325000Y-2525000D02*
X117325000Y-2525000D01*
X149875000Y-41125000D02*
G75*
G03*
X149375000Y-40625000I-500000J0D01*
G01*
X174475000Y-40625000D02*
G75*
G03*
X173975000Y-41125000I0J-500000D01*
G01*
X193025000Y-79225000D02*
X193025000Y-92225000D01*
X250675000Y-21575000D02*
G75*
G03*
X250175000Y-22075000I0J-500000D01*
G01*
X40625000Y-16025000D02*
G75*
G03*
X41125000Y-16525000I500000J0D01*
G01*
X35075000Y-73675000D02*
G75*
G03*
X35575000Y-73175000I0J500000D01*
G01*
X231625000Y-40625000D02*
G75*
G03*
X231125000Y-41125000I0J-500000D01*
G01*
X16025000Y-78725000D02*
X3025000Y-78725000D01*
X174475000Y-21575000D02*
G75*
G03*
X173975000Y-22075000I0J-500000D01*
G01*
X135875000Y-3025000D02*
X135875000Y-16025000D01*
X179888000Y-78225000D02*
X179888000Y-92225000D01*
X22075000Y-92725000D02*
X35075000Y-92725000D01*
X97775000Y-54125000D02*
G75*
G03*
X98275000Y-54625000I500000J0D01*
G01*
X79225000Y-40625000D02*
G75*
G03*
X78725000Y-41125000I0J-500000D01*
G01*
X16025000Y-35575000D02*
G75*
G03*
X16525000Y-35075000I0J500000D01*
G01*
X187975000Y-35075000D02*
X187975000Y-22075000D01*
X136375000Y-73675000D02*
X149375000Y-73675000D01*
X174475000Y-35575000D02*
X187475000Y-35575000D01*
X207025000Y-41125000D02*
G75*
G03*
X206525000Y-40625000I-500000J0D01*
G01*
X173975000Y-73175000D02*
G75*
G03*
X174475000Y-73675000I500000J0D01*
G01*
X155425000Y-2525000D02*
G75*
G03*
X154925000Y-3025000I0J-500000D01*
G01*
X187475000Y-35575000D02*
G75*
G03*
X187975000Y-35075000I0J500000D01*
G01*
X35575000Y-92225000D02*
X35575000Y-79225000D01*
X164950000Y-92725000D02*
X177950000Y-92725000D01*
X231625000Y-16525000D02*
X244625000Y-16525000D01*
X206525000Y-92725000D02*
G75*
G03*
X207025000Y-92225000I0J500000D01*
G01*
X250675000Y-40625000D02*
G75*
G03*
X250175000Y-41125000I0J-500000D01*
G01*
X245125000Y-3025000D02*
G75*
G03*
X244625000Y-2525000I-500000J0D01*
G01*
X22075000Y-16525000D02*
X35075000Y-16525000D01*
X162512000Y-92725000D02*
G75*
G03*
X163012000Y-92225000I0J500000D01*
G01*
X97775000Y-41125000D02*
X97775000Y-54125000D01*
X60175000Y-59675000D02*
G75*
G03*
X59675000Y-60175000I0J-500000D01*
G01*
X2525000Y-79225000D02*
X2525000Y-92225000D01*
X264175000Y-79225000D02*
G75*
G03*
X263675000Y-78725000I-500000J0D01*
G01*
X212075000Y-73175000D02*
G75*
G03*
X212575000Y-73675000I500000J0D01*
G01*
X3025000Y-2525000D02*
G75*
G03*
X2525000Y-3025000I0J-500000D01*
G01*
X92225000Y-2525000D02*
X79225000Y-2525000D01*
X73175000Y-40625000D02*
X60175000Y-40625000D01*
X193025000Y-3025000D02*
X193025000Y-16025000D01*
X225575000Y-54625000D02*
G75*
G03*
X226075000Y-54125000I0J500000D01*
G01*
X2525000Y-41125000D02*
X2525000Y-54125000D01*
X155425000Y-21575000D02*
G75*
G03*
X154925000Y-22075000I0J-500000D01*
G01*
X206525000Y-35575000D02*
G75*
G03*
X207025000Y-35075000I0J500000D01*
G01*
X149375000Y-35575000D02*
G75*
G03*
X149875000Y-35075000I0J500000D01*
G01*
X35075000Y-92725000D02*
G75*
G03*
X35575000Y-92225000I0J500000D01*
G01*
X226075000Y-60175000D02*
G75*
G03*
X225575000Y-59675000I-500000J0D01*
G01*
X149875000Y-92225000D02*
X149875000Y-79225000D01*
X92725000Y-22075000D02*
G75*
G03*
X92225000Y-21575000I-500000J0D01*
G01*
X101750000Y-78725000D02*
X88750000Y-78725000D01*
X60175000Y-78725000D02*
G75*
G03*
X59675000Y-79225000I0J-500000D01*
G01*
X73675000Y-79225000D02*
G75*
G03*
X73175000Y-78725000I-500000J0D01*
G01*
X40625000Y-35075000D02*
G75*
G03*
X41125000Y-35575000I500000J0D01*
G01*
X168925000Y-35075000D02*
X168925000Y-22075000D01*
X78725000Y-3025000D02*
X78725000Y-16025000D01*
X40625000Y-22075000D02*
X40625000Y-35075000D01*
X92225000Y-21575000D02*
X79225000Y-21575000D01*
X97775000Y-73175000D02*
G75*
G03*
X98275000Y-73675000I500000J0D01*
G01*
X35075000Y-40625000D02*
X22075000Y-40625000D01*
X92725000Y-35075000D02*
X92725000Y-22075000D01*
X250175000Y-60175000D02*
X250175000Y-73175000D01*
X226075000Y-16025000D02*
X226075000Y-3025000D01*
X22075000Y-40625000D02*
G75*
G03*
X21575000Y-41125000I0J-500000D01*
G01*
X231125000Y-41125000D02*
X231125000Y-54125000D01*
X60175000Y-2525000D02*
G75*
G03*
X59675000Y-3025000I0J-500000D01*
G01*
X193025000Y-92225000D02*
G75*
G03*
X193525000Y-92725000I500000J0D01*
G01*
X207025000Y-16025000D02*
X207025000Y-3025000D01*
X73675000Y-73175000D02*
X73675000Y-60175000D01*
X78725000Y-16025000D02*
G75*
G03*
X79225000Y-16525000I500000J0D01*
G01*
X54625000Y-35075000D02*
X54625000Y-22075000D01*
X186388000Y-92725000D02*
G75*
G03*
X186888000Y-92225000I0J500000D01*
G01*
X54125000Y-78725000D02*
X41125000Y-78725000D01*
X173975000Y-22075000D02*
X173975000Y-35075000D01*
X54625000Y-92225000D02*
X54625000Y-79225000D01*
X22075000Y-35575000D02*
X35075000Y-35575000D01*
X168425000Y-54625000D02*
G75*
G03*
X168925000Y-54125000I0J500000D01*
G01*
X231625000Y-59675000D02*
G75*
G03*
X231125000Y-60175000I0J-500000D01*
G01*
X73675000Y-54125000D02*
X73675000Y-41125000D01*
X59675000Y-73175000D02*
G75*
G03*
X60175000Y-73675000I500000J0D01*
G01*
X21575000Y-73175000D02*
G75*
G03*
X22075000Y-73675000I500000J0D01*
G01*
X73175000Y-16525000D02*
G75*
G03*
X73675000Y-16025000I0J500000D01*
G01*
X1000000Y3000000D02*
G75*
G03*
X0Y2000000I0J-1000000D01*
G01*
X207025000Y-3025000D02*
G75*
G03*
X206525000Y-2525000I-500000J0D01*
G01*
X135875000Y-54125000D02*
G75*
G03*
X136375000Y-54625000I500000J0D01*
G01*
X193525000Y-73675000D02*
X206525000Y-73675000D01*
X212575000Y-92725000D02*
X225575000Y-92725000D01*
X54125000Y-59675000D02*
X41125000Y-59675000D01*
X41125000Y-40625000D02*
G75*
G03*
X40625000Y-41125000I0J-500000D01*
G01*
X22075000Y-78725000D02*
G75*
G03*
X21575000Y-79225000I0J-500000D01*
G01*
X130825000Y-73175000D02*
X130825000Y-60175000D01*
X103688000Y-92225000D02*
G75*
G03*
X104188000Y-92725000I500000J0D01*
G01*
X78725000Y-54125000D02*
G75*
G03*
X79225000Y-54625000I500000J0D01*
G01*
X73675000Y-60175000D02*
G75*
G03*
X73175000Y-59675000I-500000J0D01*
G01*
X16525000Y-79225000D02*
G75*
G03*
X16025000Y-78725000I-500000J0D01*
G01*
X212075000Y-22075000D02*
X212075000Y-35075000D01*
X168425000Y-59675000D02*
X155425000Y-59675000D01*
X231125000Y-54125000D02*
G75*
G03*
X231625000Y-54625000I500000J0D01*
G01*
X101750000Y-92725000D02*
G75*
G03*
X102250000Y-92225000I0J500000D01*
G01*
X263675000Y-21575000D02*
X250675000Y-21575000D01*
X174475000Y-2525000D02*
G75*
G03*
X173975000Y-3025000I0J-500000D01*
G01*
X231625000Y-73675000D02*
X244625000Y-73675000D01*
X16025000Y-21575000D02*
X3025000Y-21575000D01*
X21575000Y-41125000D02*
X21575000Y-54125000D01*
X264175000Y-73175000D02*
X264175000Y-60175000D01*
X187975000Y-16025000D02*
X187975000Y-3025000D01*
X41125000Y-78725000D02*
G75*
G03*
X40625000Y-79225000I0J-500000D01*
G01*
X35075000Y-54625000D02*
G75*
G03*
X35575000Y-54125000I0J500000D01*
G01*
X73175000Y-92725000D02*
G75*
G03*
X73675000Y-92225000I0J500000D01*
G01*
X86312000Y-92725000D02*
G75*
G03*
X86812000Y-92225000I0J500000D01*
G01*
X2525000Y-35075000D02*
G75*
G03*
X3025000Y-35575000I500000J0D01*
G01*
X245125000Y-60175000D02*
G75*
G03*
X244625000Y-59675000I-500000J0D01*
G01*
X187975000Y-3025000D02*
G75*
G03*
X187475000Y-2525000I-500000J0D01*
G01*
X135875000Y-41125000D02*
X135875000Y-54125000D01*
X155425000Y-59675000D02*
G75*
G03*
X154925000Y-60175000I0J-500000D01*
G01*
X117325000Y-92725000D02*
X130325000Y-92725000D01*
X173975000Y-35075000D02*
G75*
G03*
X174475000Y-35575000I500000J0D01*
G01*
X3025000Y-21575000D02*
G75*
G03*
X2525000Y-22075000I0J-500000D01*
G01*
X154925000Y-22075000D02*
X154925000Y-35075000D01*
X35075000Y-16525000D02*
G75*
G03*
X35575000Y-16025000I0J500000D01*
G01*
X207025000Y-92225000D02*
X207025000Y-79225000D01*
X250175000Y-16025000D02*
G75*
G03*
X250675000Y-16525000I500000J0D01*
G01*
X264175000Y-54125000D02*
X264175000Y-41125000D01*
X117325000Y-40625000D02*
G75*
G03*
X116825000Y-41125000I0J-500000D01*
G01*
X73675000Y-3025000D02*
G75*
G03*
X73175000Y-2525000I-500000J0D01*
G01*
X164450000Y-92225000D02*
G75*
G03*
X164950000Y-92725000I500000J0D01*
G01*
X250175000Y-3025000D02*
X250175000Y-16025000D01*
X149375000Y-40625000D02*
X136375000Y-40625000D01*
X149875000Y-3025000D02*
G75*
G03*
X149375000Y-2525000I-500000J0D01*
G01*
X244625000Y-16525000D02*
G75*
G03*
X245125000Y-16025000I0J500000D01*
G01*
X54125000Y-16525000D02*
G75*
G03*
X54625000Y-16025000I0J500000D01*
G01*
X35575000Y-22075000D02*
G75*
G03*
X35075000Y-21575000I-500000J0D01*
G01*
X130325000Y-54625000D02*
G75*
G03*
X130825000Y-54125000I0J500000D01*
G01*
X78725000Y-22075000D02*
X78725000Y-35075000D01*
X173975000Y-41125000D02*
X173975000Y-54125000D01*
X111275000Y-2525000D02*
X98275000Y-2525000D01*
X226075000Y-73175000D02*
X226075000Y-60175000D01*
X163012000Y-78225000D02*
G75*
G03*
X162512000Y-77725000I-500000J0D01*
G01*
X231625000Y-92725000D02*
X244625000Y-92725000D01*
X110688000Y-78225000D02*
G75*
G03*
X110188000Y-77725000I-500000J0D01*
G01*
X1000000Y3000000D02*
X265700000Y3000000D01*
X136375000Y-59675000D02*
G75*
G03*
X135875000Y-60175000I0J-500000D01*
G01*
X186888000Y-92225000D02*
X186888000Y-78225000D01*
X111275000Y-54625000D02*
G75*
G03*
X111775000Y-54125000I0J500000D01*
G01*
X130325000Y-78725000D02*
X117325000Y-78725000D01*
X41125000Y-73675000D02*
X54125000Y-73675000D01*
X3025000Y-92725000D02*
X16025000Y-92725000D01*
X186388000Y-77725000D02*
X180388000Y-77725000D01*
X16525000Y-73175000D02*
X16525000Y-60175000D01*
X54125000Y-21575000D02*
X41125000Y-21575000D01*
X3025000Y-59675000D02*
G75*
G03*
X2525000Y-60175000I0J-500000D01*
G01*
X263675000Y-92725000D02*
G75*
G03*
X264175000Y-92225000I0J500000D01*
G01*
X111775000Y-16025000D02*
X111775000Y-3025000D01*
X92725000Y-73175000D02*
X92725000Y-60175000D01*
X250675000Y-35575000D02*
X263675000Y-35575000D01*
X226075000Y-35075000D02*
X226075000Y-22075000D01*
X130325000Y-21575000D02*
X117325000Y-21575000D01*
X135875000Y-22075000D02*
X135875000Y-35075000D01*
X193525000Y-35575000D02*
X206525000Y-35575000D01*
X193525000Y-21575000D02*
G75*
G03*
X193025000Y-22075000I0J-500000D01*
G01*
X54125000Y-35575000D02*
G75*
G03*
X54625000Y-35075000I0J500000D01*
G01*
X116825000Y-3025000D02*
X116825000Y-16025000D01*
X117325000Y-35575000D02*
X130325000Y-35575000D01*
X97775000Y-22075000D02*
X97775000Y-35075000D01*
X180388000Y-77725000D02*
G75*
G03*
X179888000Y-78225000I0J-500000D01*
G01*
X79812000Y-92225000D02*
G75*
G03*
X80312000Y-92725000I500000J0D01*
G01*
X225575000Y-2525000D02*
X212575000Y-2525000D01*
X250675000Y-54625000D02*
X263675000Y-54625000D01*
X73175000Y-2525000D02*
X60175000Y-2525000D01*
X149375000Y-73675000D02*
G75*
G03*
X149875000Y-73175000I0J500000D01*
G01*
X130325000Y-73675000D02*
G75*
G03*
X130825000Y-73175000I0J500000D01*
G01*
X16025000Y-16525000D02*
G75*
G03*
X16525000Y-16025000I0J500000D01*
G01*
X231125000Y-60175000D02*
X231125000Y-73175000D01*
X245125000Y-54125000D02*
X245125000Y-41125000D01*
X186888000Y-78225000D02*
G75*
G03*
X186388000Y-77725000I-500000J0D01*
G01*
X206525000Y-40625000D02*
X193525000Y-40625000D01*
X16025000Y-73675000D02*
G75*
G03*
X16525000Y-73175000I0J500000D01*
G01*
X164450000Y-79225000D02*
X164450000Y-92225000D01*
X244625000Y-21575000D02*
X231625000Y-21575000D01*
X0Y-97250000D02*
G75*
G03*
X1000000Y-98250000I1000000J0D01*
G01*
X155425000Y-54625000D02*
X168425000Y-54625000D01*
X250675000Y-78725000D02*
G75*
G03*
X250175000Y-79225000I0J-500000D01*
G01*
X163012000Y-92225000D02*
X163012000Y-78225000D01*
X244625000Y-73675000D02*
G75*
G03*
X245125000Y-73175000I0J500000D01*
G01*
X102250000Y-79225000D02*
G75*
G03*
X101750000Y-78725000I-500000J0D01*
G01*
X16525000Y-22075000D02*
G75*
G03*
X16025000Y-21575000I-500000J0D01*
G01*
X250175000Y-54125000D02*
G75*
G03*
X250675000Y-54625000I500000J0D01*
G01*
X168925000Y-73175000D02*
X168925000Y-60175000D01*
X73175000Y-54625000D02*
G75*
G03*
X73675000Y-54125000I0J500000D01*
G01*
X207025000Y-35075000D02*
X207025000Y-22075000D01*
X59675000Y-79225000D02*
X59675000Y-92225000D01*
X231125000Y-16025000D02*
G75*
G03*
X231625000Y-16525000I500000J0D01*
G01*
X80312000Y-92725000D02*
X86312000Y-92725000D01*
X264175000Y-35075000D02*
X264175000Y-22075000D01*
X149375000Y-78725000D02*
X136375000Y-78725000D01*
X78725000Y-41125000D02*
X78725000Y-54125000D01*
X117325000Y-54625000D02*
X130325000Y-54625000D01*
X226075000Y-41125000D02*
G75*
G03*
X225575000Y-40625000I-500000J0D01*
G01*
X263675000Y-73675000D02*
G75*
G03*
X264175000Y-73175000I0J500000D01*
G01*
X35075000Y-2525000D02*
X22075000Y-2525000D01*
X60175000Y-35575000D02*
X73175000Y-35575000D01*
X136375000Y-40625000D02*
G75*
G03*
X135875000Y-41125000I0J-500000D01*
G01*
X193525000Y-59675000D02*
G75*
G03*
X193025000Y-60175000I0J-500000D01*
G01*
X206525000Y-2525000D02*
X193525000Y-2525000D01*
X35575000Y-41125000D02*
G75*
G03*
X35075000Y-40625000I-500000J0D01*
G01*
X2525000Y-54125000D02*
G75*
G03*
X3025000Y-54625000I500000J0D01*
G01*
X264175000Y-92225000D02*
X264175000Y-79225000D01*
X193025000Y-16025000D02*
G75*
G03*
X193525000Y-16525000I500000J0D01*
G01*
X16525000Y-16025000D02*
X16525000Y-3025000D01*
X135875000Y-60175000D02*
X135875000Y-73175000D01*
X79225000Y-21575000D02*
G75*
G03*
X78725000Y-22075000I0J-500000D01*
G01*
X136375000Y-92725000D02*
X149375000Y-92725000D01*
X97775000Y-16025000D02*
G75*
G03*
X98275000Y-16525000I500000J0D01*
G01*
X16525000Y-35075000D02*
X16525000Y-22075000D01*
X245125000Y-73175000D02*
X245125000Y-60175000D01*
X110688000Y-92225000D02*
X110688000Y-78225000D01*
X245125000Y-79225000D02*
G75*
G03*
X244625000Y-78725000I-500000J0D01*
G01*
X59675000Y-41125000D02*
X59675000Y-54125000D01*
X116825000Y-41125000D02*
X116825000Y-54125000D01*
X60175000Y-54625000D02*
X73175000Y-54625000D01*
X187475000Y-16525000D02*
G75*
G03*
X187975000Y-16025000I0J500000D01*
G01*
X54625000Y-73175000D02*
X54625000Y-60175000D01*
X41125000Y-2525000D02*
G75*
G03*
X40625000Y-3025000I0J-500000D01*
G01*
X92225000Y-35575000D02*
G75*
G03*
X92725000Y-35075000I0J500000D01*
G01*
X16525000Y-41125000D02*
G75*
G03*
X16025000Y-40625000I-500000J0D01*
G01*
X265700000Y-98250000D02*
G75*
G03*
X266700000Y-97250000I0J1000000D01*
G01*
X168425000Y-2525000D02*
X155425000Y-2525000D01*
X116825000Y-22075000D02*
X116825000Y-35075000D01*
X111275000Y-59675000D02*
X98275000Y-59675000D01*
X92225000Y-54625000D02*
G75*
G03*
X92725000Y-54125000I0J500000D01*
G01*
X136375000Y-21575000D02*
G75*
G03*
X135875000Y-22075000I0J-500000D01*
G01*
X226075000Y-22075000D02*
G75*
G03*
X225575000Y-21575000I-500000J0D01*
G01*
X155425000Y-16525000D02*
X168425000Y-16525000D01*
X225575000Y-92725000D02*
G75*
G03*
X226075000Y-92225000I0J500000D01*
G01*
X149875000Y-22075000D02*
G75*
G03*
X149375000Y-21575000I-500000J0D01*
G01*
X111775000Y-41125000D02*
G75*
G03*
X111275000Y-40625000I-500000J0D01*
G01*
X149375000Y-16525000D02*
G75*
G03*
X149875000Y-16025000I0J500000D01*
G01*
X187475000Y-2525000D02*
X174475000Y-2525000D01*
X130825000Y-92225000D02*
X130825000Y-79225000D01*
X111775000Y-22075000D02*
G75*
G03*
X111275000Y-21575000I-500000J0D01*
G01*
X231625000Y-54625000D02*
X244625000Y-54625000D01*
X231125000Y-22075000D02*
X231125000Y-35075000D01*
X206525000Y-21575000D02*
X193525000Y-21575000D01*
X54125000Y-92725000D02*
G75*
G03*
X54625000Y-92225000I0J500000D01*
G01*
X193025000Y-35075000D02*
G75*
G03*
X193525000Y-35575000I500000J0D01*
G01*
X54625000Y-60175000D02*
G75*
G03*
X54125000Y-59675000I-500000J0D01*
G01*
X117325000Y-73675000D02*
X130325000Y-73675000D01*
X212075000Y-92225000D02*
G75*
G03*
X212575000Y-92725000I500000J0D01*
G01*
X168425000Y-21575000D02*
X155425000Y-21575000D01*
X226075000Y-3025000D02*
G75*
G03*
X225575000Y-2525000I-500000J0D01*
G01*
X79812000Y-78225000D02*
X79812000Y-92225000D01*
X250175000Y-41125000D02*
X250175000Y-54125000D01*
X212075000Y-79225000D02*
X212075000Y-92225000D01*
X130325000Y-35575000D02*
G75*
G03*
X130825000Y-35075000I0J500000D01*
G01*
X73675000Y-22075000D02*
G75*
G03*
X73175000Y-21575000I-500000J0D01*
G01*
X212575000Y-35575000D02*
X225575000Y-35575000D01*
X187975000Y-22075000D02*
G75*
G03*
X187475000Y-21575000I-500000J0D01*
G01*
X207025000Y-22075000D02*
G75*
G03*
X206525000Y-21575000I-500000J0D01*
G01*
X136375000Y-2525000D02*
G75*
G03*
X135875000Y-3025000I0J-500000D01*
G01*
X59675000Y-92225000D02*
G75*
G03*
X60175000Y-92725000I500000J0D01*
G01*
X111275000Y-35575000D02*
G75*
G03*
X111775000Y-35075000I0J500000D01*
G01*
X193525000Y-78725000D02*
G75*
G03*
X193025000Y-79225000I0J-500000D01*
G01*
X117325000Y-59675000D02*
G75*
G03*
X116825000Y-60175000I0J-500000D01*
G01*
X22075000Y-73675000D02*
X35075000Y-73675000D01*
X111275000Y-16525000D02*
G75*
G03*
X111775000Y-16025000I0J500000D01*
G01*
X206525000Y-78725000D02*
X193525000Y-78725000D01*
X154925000Y-73175000D02*
G75*
G03*
X155425000Y-73675000I500000J0D01*
G01*
X231625000Y-21575000D02*
G75*
G03*
X231125000Y-22075000I0J-500000D01*
G01*
X244625000Y-78725000D02*
X231625000Y-78725000D01*
X21575000Y-92225000D02*
G75*
G03*
X22075000Y-92725000I500000J0D01*
G01*
X173975000Y-3025000D02*
X173975000Y-16025000D01*
X264175000Y-41125000D02*
G75*
G03*
X263675000Y-40625000I-500000J0D01*
G01*
X54625000Y-54125000D02*
X54625000Y-41125000D01*
X116825000Y-16025000D02*
G75*
G03*
X117325000Y-16525000I500000J0D01*
G01*
X40625000Y-60175000D02*
X40625000Y-73175000D01*
X156012000Y-78225000D02*
X156012000Y-92225000D01*
X54625000Y-79225000D02*
G75*
G03*
X54125000Y-78725000I-500000J0D01*
G01*
X225575000Y-78725000D02*
X212575000Y-78725000D01*
X111775000Y-3025000D02*
G75*
G03*
X111275000Y-2525000I-500000J0D01*
G01*
X16025000Y-92725000D02*
G75*
G03*
X16525000Y-92225000I0J500000D01*
G01*
X177950000Y-92725000D02*
G75*
G03*
X178450000Y-92225000I0J500000D01*
G01*
X136375000Y-54625000D02*
X149375000Y-54625000D01*
X174475000Y-73675000D02*
X187475000Y-73675000D01*
X130825000Y-16025000D02*
X130825000Y-3025000D01*
X130825000Y-41125000D02*
G75*
G03*
X130325000Y-40625000I-500000J0D01*
G01*
X59675000Y-54125000D02*
G75*
G03*
X60175000Y-54625000I500000J0D01*
G01*
X207025000Y-73175000D02*
X207025000Y-60175000D01*
X187475000Y-59675000D02*
X174475000Y-59675000D01*
X250175000Y-73175000D02*
G75*
G03*
X250675000Y-73675000I500000J0D01*
G01*
X79225000Y-54625000D02*
X92225000Y-54625000D01*
X178450000Y-79225000D02*
G75*
G03*
X177950000Y-78725000I-500000J0D01*
G01*
X111775000Y-60175000D02*
G75*
G03*
X111275000Y-59675000I-500000J0D01*
G01*
X173975000Y-54125000D02*
G75*
G03*
X174475000Y-54625000I500000J0D01*
G01*
X264175000Y-22075000D02*
G75*
G03*
X263675000Y-21575000I-500000J0D01*
G01*
X59675000Y-3025000D02*
X59675000Y-16025000D01*
X168925000Y-60175000D02*
G75*
G03*
X168425000Y-59675000I-500000J0D01*
G01*
X16525000Y-92225000D02*
X16525000Y-79225000D01*
X245125000Y-16025000D02*
X245125000Y-3025000D01*
X130325000Y-40625000D02*
X117325000Y-40625000D01*
X54625000Y-3025000D02*
G75*
G03*
X54125000Y-2525000I-500000J0D01*
G01*
X73675000Y-16025000D02*
X73675000Y-3025000D01*
X86812000Y-78225000D02*
G75*
G03*
X86312000Y-77725000I-500000J0D01*
G01*
X164950000Y-78725000D02*
G75*
G03*
X164450000Y-79225000I0J-500000D01*
G01*
X35075000Y-78725000D02*
X22075000Y-78725000D01*
X117325000Y-21575000D02*
G75*
G03*
X116825000Y-22075000I0J-500000D01*
G01*
X16525000Y-60175000D02*
G75*
G03*
X16025000Y-59675000I-500000J0D01*
G01*
X206525000Y-73675000D02*
G75*
G03*
X207025000Y-73175000I0J500000D01*
G01*
X212075000Y-60175000D02*
X212075000Y-73175000D01*
X187975000Y-73175000D02*
X187975000Y-60175000D01*
X154925000Y-35075000D02*
G75*
G03*
X155425000Y-35575000I500000J0D01*
G01*
M02*
