M48
; DRILL file {KiCad (6.0.4)} date Sun Sep 11 20:25:23 2022
; FORMAT={-:-/ absolute / inch / decimal}
; #@! TF.CreationDate,2022-09-11T20:25:23+10:00
; #@! TF.GenerationSoftware,Kicad,Pcbnew,(6.0.4)
; #@! TF.FileFunction,NonPlated,1,2,NPTH
FMAT,2
INCH
; #@! TA.AperFunction,NonPlated,NPTH,ComponentDrill
T1C0.0236
; #@! TA.AperFunction,NonPlated,NPTH,ComponentDrill
T2C0.0689
; #@! TA.AperFunction,NonPlated,NPTH,ComponentDrill
T3C0.1200
; #@! TA.AperFunction,NonPlated,NPTH,ComponentDrill
T4C0.1570
%
G90
G05
T1
X5.898Y-0.1073
X6.1256Y-0.1073
T2
X0.175Y-0.375
X0.175Y-1.125
X0.175Y-1.875
X0.175Y-2.625
X0.175Y-3.375
X0.575Y-0.375
X0.575Y-1.125
X0.575Y-1.875
X0.575Y-2.625
X0.575Y-3.375
X0.925Y-0.375
X0.925Y-1.125
X0.925Y-1.875
X0.925Y-2.625
X0.925Y-3.375
X1.325Y-0.375
X1.325Y-1.125
X1.325Y-1.875
X1.325Y-2.625
X1.325Y-3.375
X1.675Y-0.375
X1.675Y-1.125
X1.675Y-1.875
X1.675Y-2.625
X1.675Y-3.375
X2.075Y-0.375
X2.075Y-1.125
X2.075Y-1.875
X2.075Y-2.625
X2.075Y-3.375
X2.425Y-0.375
X2.425Y-1.125
X2.425Y-1.875
X2.425Y-2.625
X2.425Y-3.375
X2.825Y-0.375
X2.825Y-1.125
X2.825Y-1.875
X2.825Y-2.625
X2.825Y-3.375
X3.175Y-0.375
X3.175Y-1.125
X3.175Y-1.875
X3.175Y-2.625
X3.55Y-3.375
X3.575Y-0.375
X3.575Y-1.125
X3.575Y-1.875
X3.575Y-2.625
X3.925Y-0.375
X3.925Y-1.125
X3.925Y-1.875
X3.925Y-2.625
X3.95Y-3.375
X4.325Y-0.375
X4.325Y-1.125
X4.325Y-1.875
X4.325Y-2.625
X4.675Y-0.375
X4.675Y-1.125
X4.675Y-1.875
X4.675Y-2.625
X4.675Y-3.375
X5.075Y-0.375
X5.075Y-1.125
X5.075Y-1.875
X5.075Y-2.625
X5.075Y-3.375
X5.425Y-0.375
X5.425Y-1.125
X5.425Y-1.875
X5.425Y-2.625
X5.425Y-3.375
X5.825Y-0.375
X5.825Y-1.125
X5.825Y-1.875
X5.825Y-2.625
X5.825Y-3.375
X6.175Y-0.375
X6.175Y-1.125
X6.175Y-1.875
X6.175Y-2.625
X6.55Y-3.375
X6.575Y-0.375
X6.575Y-1.125
X6.575Y-1.875
X6.575Y-2.625
X6.925Y-0.375
X6.925Y-1.125
X6.925Y-1.875
X6.925Y-2.625
X6.95Y-3.375
X7.325Y-0.375
X7.325Y-1.125
X7.325Y-1.875
X7.325Y-2.625
X7.675Y-0.375
X7.675Y-1.125
X7.675Y-1.875
X7.675Y-2.625
X7.675Y-3.375
X8.075Y-0.375
X8.075Y-1.125
X8.075Y-1.875
X8.075Y-2.625
X8.075Y-3.375
X8.425Y-0.375
X8.425Y-1.125
X8.425Y-1.875
X8.425Y-2.625
X8.425Y-3.375
X8.825Y-0.375
X8.825Y-1.125
X8.825Y-1.875
X8.825Y-2.625
X8.825Y-3.375
X9.175Y-0.375
X9.175Y-1.125
X9.175Y-1.875
X9.175Y-2.625
X9.175Y-3.375
X9.575Y-0.375
X9.575Y-1.125
X9.575Y-1.875
X9.575Y-2.625
X9.575Y-3.375
X9.925Y-0.375
X9.925Y-1.125
X9.925Y-1.875
X9.925Y-2.625
X9.925Y-3.375
X10.325Y-0.375
X10.325Y-1.125
X10.325Y-1.875
X10.325Y-2.625
X10.325Y-3.375
T3
X3.2812Y-3.65
X4.2188Y-3.65
X6.2812Y-3.65
X7.2188Y-3.65
T4
X0.375Y-0.375
X0.375Y-1.125
X0.375Y-1.875
X0.375Y-2.625
X0.375Y-3.375
X1.125Y-0.375
X1.125Y-1.125
X1.125Y-1.875
X1.125Y-2.625
X1.125Y-3.375
X1.875Y-0.375
X1.875Y-1.125
X1.875Y-1.875
X1.875Y-2.625
X1.875Y-3.375
X2.625Y-0.375
X2.625Y-1.125
X2.625Y-1.875
X2.625Y-2.625
X2.625Y-3.375
X3.2812Y-3.05
X3.375Y-0.375
X3.375Y-1.125
X3.375Y-1.875
X3.375Y-2.625
X3.75Y-3.375
X4.125Y-0.375
X4.125Y-1.125
X4.125Y-1.875
X4.125Y-2.625
X4.2188Y-3.05
X4.875Y-0.375
X4.875Y-1.125
X4.875Y-1.875
X4.875Y-2.625
X4.875Y-3.375
X5.625Y-0.375
X5.625Y-1.125
X5.625Y-1.875
X5.625Y-2.625
X5.625Y-3.375
X6.2812Y-3.05
X6.375Y-0.375
X6.375Y-1.125
X6.375Y-1.875
X6.375Y-2.625
X6.75Y-3.375
X7.125Y-0.375
X7.125Y-1.125
X7.125Y-1.875
X7.125Y-2.625
X7.2188Y-3.05
X7.875Y-0.375
X7.875Y-1.125
X7.875Y-1.875
X7.875Y-2.625
X7.875Y-3.375
X8.625Y-0.375
X8.625Y-1.125
X8.625Y-1.875
X8.625Y-2.625
X8.625Y-3.375
X9.375Y-0.375
X9.375Y-1.125
X9.375Y-1.875
X9.375Y-2.625
X9.375Y-3.375
X10.125Y-0.375
X10.125Y-1.125
X10.125Y-1.875
X10.125Y-2.625
X10.125Y-3.375
T0
M30
