%TF.GenerationSoftware,KiCad,Pcbnew,(6.0.4)*%
%TF.CreationDate,2022-09-11T20:25:19+10:00*%
%TF.ProjectId,pcb,7063622e-6b69-4636-9164-5f7063625858,rev?*%
%TF.SameCoordinates,Original*%
%TF.FileFunction,Soldermask,Top*%
%TF.FilePolarity,Negative*%
%FSLAX46Y46*%
G04 Gerber Fmt 4.6, Leading zero omitted, Abs format (unit mm)*
G04 Created by KiCad (PCBNEW (6.0.4)) date 2022-09-11 20:25:19*
%MOMM*%
%LPD*%
G01*
G04 APERTURE LIST*
%ADD10C,0.735000*%
%ADD11C,1.750000*%
%ADD12C,3.987800*%
%ADD13C,4.550000*%
%ADD14R,1.700000X1.700000*%
%ADD15C,1.700000*%
%ADD16C,3.048000*%
%ADD17R,1.600000X1.600000*%
%ADD18C,1.600000*%
%ADD19C,0.600000*%
%ADD20O,0.900000X2.000000*%
%ADD21O,0.900000X1.700000*%
G04 APERTURE END LIST*
%TO.C,SW17*%
D10*
X44182500Y-26035000D02*
G75*
G03*
X44182500Y-26035000I-367500J0D01*
G01*
X50532500Y-23495000D02*
G75*
G03*
X50532500Y-23495000I-367500J0D01*
G01*
%TO.C,SW31*%
X50532500Y-42545000D02*
G75*
G03*
X50532500Y-42545000I-367500J0D01*
G01*
X44182500Y-45085000D02*
G75*
G03*
X44182500Y-45085000I-367500J0D01*
G01*
%TO.C,SW3*%
X50532500Y-4445000D02*
G75*
G03*
X50532500Y-4445000I-367500J0D01*
G01*
X44182500Y-6985000D02*
G75*
G03*
X44182500Y-6985000I-367500J0D01*
G01*
%TO.C,SW30*%
X25132500Y-45085000D02*
G75*
G03*
X25132500Y-45085000I-367500J0D01*
G01*
X31482500Y-42545000D02*
G75*
G03*
X31482500Y-42545000I-367500J0D01*
G01*
%TO.C,SW60*%
X69582500Y-80645000D02*
G75*
G03*
X69582500Y-80645000I-367500J0D01*
G01*
X63232500Y-83185000D02*
G75*
G03*
X63232500Y-83185000I-367500J0D01*
G01*
%TO.C,SW33*%
X88632500Y-42545000D02*
G75*
G03*
X88632500Y-42545000I-367500J0D01*
G01*
X82282500Y-45085000D02*
G75*
G03*
X82282500Y-45085000I-367500J0D01*
G01*
%TO.C,SW46*%
X63232500Y-64135000D02*
G75*
G03*
X63232500Y-64135000I-367500J0D01*
G01*
X69582500Y-61595000D02*
G75*
G03*
X69582500Y-61595000I-367500J0D01*
G01*
%TO.C,SW65*%
X202932500Y-80645000D02*
G75*
G03*
X202932500Y-80645000I-367500J0D01*
G01*
X196582500Y-83185000D02*
G75*
G03*
X196582500Y-83185000I-367500J0D01*
G01*
%TO.C,SW57*%
X12432500Y-80645000D02*
G75*
G03*
X12432500Y-80645000I-367500J0D01*
G01*
X6082500Y-83185000D02*
G75*
G03*
X6082500Y-83185000I-367500J0D01*
G01*
%TO.C,SW68*%
X253732500Y-83185000D02*
G75*
G03*
X253732500Y-83185000I-367500J0D01*
G01*
X260082500Y-80645000D02*
G75*
G03*
X260082500Y-80645000I-367500J0D01*
G01*
%TO.C,SW47*%
X82282500Y-64135000D02*
G75*
G03*
X82282500Y-64135000I-367500J0D01*
G01*
X88632500Y-61595000D02*
G75*
G03*
X88632500Y-61595000I-367500J0D01*
G01*
%TO.C,SW51*%
X164832500Y-61595000D02*
G75*
G03*
X164832500Y-61595000I-367500J0D01*
G01*
X158482500Y-64135000D02*
G75*
G03*
X158482500Y-64135000I-367500J0D01*
G01*
%TO.C,SW43*%
X6082500Y-64135000D02*
G75*
G03*
X6082500Y-64135000I-367500J0D01*
G01*
X12432500Y-61595000D02*
G75*
G03*
X12432500Y-61595000I-367500J0D01*
G01*
%TO.C,SW58*%
X25132500Y-83185000D02*
G75*
G03*
X25132500Y-83185000I-367500J0D01*
G01*
X31482500Y-80645000D02*
G75*
G03*
X31482500Y-80645000I-367500J0D01*
G01*
%TO.C,SW1*%
X6082500Y-6985000D02*
G75*
G03*
X6082500Y-6985000I-367500J0D01*
G01*
X12432500Y-4445000D02*
G75*
G03*
X12432500Y-4445000I-367500J0D01*
G01*
%TO.C,SW42*%
X253732500Y-45085000D02*
G75*
G03*
X253732500Y-45085000I-367500J0D01*
G01*
X260082500Y-42545000D02*
G75*
G03*
X260082500Y-42545000I-367500J0D01*
G01*
%TO.C,SW11*%
X202932500Y-4445000D02*
G75*
G03*
X202932500Y-4445000I-367500J0D01*
G01*
X196582500Y-6985000D02*
G75*
G03*
X196582500Y-6985000I-367500J0D01*
G01*
%TO.C,SW54*%
X221982500Y-61595000D02*
G75*
G03*
X221982500Y-61595000I-367500J0D01*
G01*
X215632500Y-64135000D02*
G75*
G03*
X215632500Y-64135000I-367500J0D01*
G01*
%TO.C,SW38*%
X183882500Y-42545000D02*
G75*
G03*
X183882500Y-42545000I-367500J0D01*
G01*
X177532500Y-45085000D02*
G75*
G03*
X177532500Y-45085000I-367500J0D01*
G01*
%TO.C,SW63*%
X145782500Y-80645000D02*
G75*
G03*
X145782500Y-80645000I-367500J0D01*
G01*
X139432500Y-83185000D02*
G75*
G03*
X139432500Y-83185000I-367500J0D01*
G01*
%TO.C,SW5*%
X88632500Y-4445000D02*
G75*
G03*
X88632500Y-4445000I-367500J0D01*
G01*
X82282500Y-6985000D02*
G75*
G03*
X82282500Y-6985000I-367500J0D01*
G01*
%TO.C,SW10*%
X177532500Y-6985000D02*
G75*
G03*
X177532500Y-6985000I-367500J0D01*
G01*
X183882500Y-4445000D02*
G75*
G03*
X183882500Y-4445000I-367500J0D01*
G01*
%TO.C,SW52*%
X177532500Y-64135000D02*
G75*
G03*
X177532500Y-64135000I-367500J0D01*
G01*
X183882500Y-61595000D02*
G75*
G03*
X183882500Y-61595000I-367500J0D01*
G01*
%TO.C,SW23*%
X164832500Y-23495000D02*
G75*
G03*
X164832500Y-23495000I-367500J0D01*
G01*
X158482500Y-26035000D02*
G75*
G03*
X158482500Y-26035000I-367500J0D01*
G01*
%TO.C,SW48*%
X107682500Y-61595000D02*
G75*
G03*
X107682500Y-61595000I-367500J0D01*
G01*
X101332500Y-64135000D02*
G75*
G03*
X101332500Y-64135000I-367500J0D01*
G01*
%TO.C,SW39*%
X202932500Y-42545000D02*
G75*
G03*
X202932500Y-42545000I-367500J0D01*
G01*
X196582500Y-45085000D02*
G75*
G03*
X196582500Y-45085000I-367500J0D01*
G01*
%TO.C,SW14*%
X260082500Y-4445000D02*
G75*
G03*
X260082500Y-4445000I-367500J0D01*
G01*
X253732500Y-6985000D02*
G75*
G03*
X253732500Y-6985000I-367500J0D01*
G01*
%TO.C,SW59*%
X50532500Y-80645000D02*
G75*
G03*
X50532500Y-80645000I-367500J0D01*
G01*
X44182500Y-83185000D02*
G75*
G03*
X44182500Y-83185000I-367500J0D01*
G01*
%TO.C,SW56*%
X260082500Y-61595000D02*
G75*
G03*
X260082500Y-61595000I-367500J0D01*
G01*
X253732500Y-64135000D02*
G75*
G03*
X253732500Y-64135000I-367500J0D01*
G01*
%TO.C,SW49*%
X126732500Y-61595000D02*
G75*
G03*
X126732500Y-61595000I-367500J0D01*
G01*
X120382500Y-64135000D02*
G75*
G03*
X120382500Y-64135000I-367500J0D01*
G01*
%TO.C,SW66*%
X215632500Y-83185000D02*
G75*
G03*
X215632500Y-83185000I-367500J0D01*
G01*
X221982500Y-80645000D02*
G75*
G03*
X221982500Y-80645000I-367500J0D01*
G01*
%TO.C,SW50*%
X145782500Y-61595000D02*
G75*
G03*
X145782500Y-61595000I-367500J0D01*
G01*
X139432500Y-64135000D02*
G75*
G03*
X139432500Y-64135000I-367500J0D01*
G01*
%TO.C,SW13*%
X241032500Y-4445000D02*
G75*
G03*
X241032500Y-4445000I-367500J0D01*
G01*
X234682500Y-6985000D02*
G75*
G03*
X234682500Y-6985000I-367500J0D01*
G01*
%TO.C,SW9*%
X158482500Y-6985000D02*
G75*
G03*
X158482500Y-6985000I-367500J0D01*
G01*
X164832500Y-4445000D02*
G75*
G03*
X164832500Y-4445000I-367500J0D01*
G01*
%TO.C,SW45*%
X50532500Y-61595000D02*
G75*
G03*
X50532500Y-61595000I-367500J0D01*
G01*
X44182500Y-64135000D02*
G75*
G03*
X44182500Y-64135000I-367500J0D01*
G01*
%TO.C,SW4*%
X69582500Y-4445000D02*
G75*
G03*
X69582500Y-4445000I-367500J0D01*
G01*
X63232500Y-6985000D02*
G75*
G03*
X63232500Y-6985000I-367500J0D01*
G01*
%TO.C,SW6*%
X101332500Y-6985000D02*
G75*
G03*
X101332500Y-6985000I-367500J0D01*
G01*
X107682500Y-4445000D02*
G75*
G03*
X107682500Y-4445000I-367500J0D01*
G01*
%TO.C,SW40*%
X215632500Y-45085000D02*
G75*
G03*
X215632500Y-45085000I-367500J0D01*
G01*
X221982500Y-42545000D02*
G75*
G03*
X221982500Y-42545000I-367500J0D01*
G01*
%TO.C,SW53*%
X202932500Y-61595000D02*
G75*
G03*
X202932500Y-61595000I-367500J0D01*
G01*
X196582500Y-64135000D02*
G75*
G03*
X196582500Y-64135000I-367500J0D01*
G01*
%TO.C,SW29*%
X6082500Y-45085000D02*
G75*
G03*
X6082500Y-45085000I-367500J0D01*
G01*
X12432500Y-42545000D02*
G75*
G03*
X12432500Y-42545000I-367500J0D01*
G01*
%TO.C,SW22*%
X145782500Y-23495000D02*
G75*
G03*
X145782500Y-23495000I-367500J0D01*
G01*
X139432500Y-26035000D02*
G75*
G03*
X139432500Y-26035000I-367500J0D01*
G01*
%TO.C,SW34*%
X101332500Y-45085000D02*
G75*
G03*
X101332500Y-45085000I-367500J0D01*
G01*
X107682500Y-42545000D02*
G75*
G03*
X107682500Y-42545000I-367500J0D01*
G01*
%TO.C,SW7*%
X120382500Y-6985000D02*
G75*
G03*
X120382500Y-6985000I-367500J0D01*
G01*
X126732500Y-4445000D02*
G75*
G03*
X126732500Y-4445000I-367500J0D01*
G01*
%TO.C,SW24*%
X183882500Y-23495000D02*
G75*
G03*
X183882500Y-23495000I-367500J0D01*
G01*
X177532500Y-26035000D02*
G75*
G03*
X177532500Y-26035000I-367500J0D01*
G01*
%TO.C,SW62*%
X126732500Y-80645000D02*
G75*
G03*
X126732500Y-80645000I-367500J0D01*
G01*
X120382500Y-83185000D02*
G75*
G03*
X120382500Y-83185000I-367500J0D01*
G01*
%TO.C,SW15*%
X12432500Y-23495000D02*
G75*
G03*
X12432500Y-23495000I-367500J0D01*
G01*
X6082500Y-26035000D02*
G75*
G03*
X6082500Y-26035000I-367500J0D01*
G01*
%TO.C,SW2*%
X31482500Y-4445000D02*
G75*
G03*
X31482500Y-4445000I-367500J0D01*
G01*
X25132500Y-6985000D02*
G75*
G03*
X25132500Y-6985000I-367500J0D01*
G01*
%TO.C,SW18*%
X69582500Y-23495000D02*
G75*
G03*
X69582500Y-23495000I-367500J0D01*
G01*
X63232500Y-26035000D02*
G75*
G03*
X63232500Y-26035000I-367500J0D01*
G01*
%TO.C,SW12*%
X215632500Y-6985000D02*
G75*
G03*
X215632500Y-6985000I-367500J0D01*
G01*
X221982500Y-4445000D02*
G75*
G03*
X221982500Y-4445000I-367500J0D01*
G01*
%TO.C,SW61*%
X91807500Y-83185000D02*
G75*
G03*
X91807500Y-83185000I-367500J0D01*
G01*
X98157500Y-80645000D02*
G75*
G03*
X98157500Y-80645000I-367500J0D01*
G01*
%TO.C,SW67*%
X234682500Y-83185000D02*
G75*
G03*
X234682500Y-83185000I-367500J0D01*
G01*
X241032500Y-80645000D02*
G75*
G03*
X241032500Y-80645000I-367500J0D01*
G01*
%TO.C,SW36*%
X139432500Y-45085000D02*
G75*
G03*
X139432500Y-45085000I-367500J0D01*
G01*
X145782500Y-42545000D02*
G75*
G03*
X145782500Y-42545000I-367500J0D01*
G01*
%TO.C,SW55*%
X241032500Y-61595000D02*
G75*
G03*
X241032500Y-61595000I-367500J0D01*
G01*
X234682500Y-64135000D02*
G75*
G03*
X234682500Y-64135000I-367500J0D01*
G01*
%TO.C,SW26*%
X221982500Y-23495000D02*
G75*
G03*
X221982500Y-23495000I-367500J0D01*
G01*
X215632500Y-26035000D02*
G75*
G03*
X215632500Y-26035000I-367500J0D01*
G01*
%TO.C,SW8*%
X139432500Y-6985000D02*
G75*
G03*
X139432500Y-6985000I-367500J0D01*
G01*
X145782500Y-4445000D02*
G75*
G03*
X145782500Y-4445000I-367500J0D01*
G01*
%TO.C,SW37*%
X158482500Y-45085000D02*
G75*
G03*
X158482500Y-45085000I-367500J0D01*
G01*
X164832500Y-42545000D02*
G75*
G03*
X164832500Y-42545000I-367500J0D01*
G01*
%TO.C,SW25*%
X202932500Y-23495000D02*
G75*
G03*
X202932500Y-23495000I-367500J0D01*
G01*
X196582500Y-26035000D02*
G75*
G03*
X196582500Y-26035000I-367500J0D01*
G01*
%TO.C,SW64*%
X168007500Y-83185000D02*
G75*
G03*
X168007500Y-83185000I-367500J0D01*
G01*
X174357500Y-80645000D02*
G75*
G03*
X174357500Y-80645000I-367500J0D01*
G01*
%TO.C,SW41*%
X234682500Y-45085000D02*
G75*
G03*
X234682500Y-45085000I-367500J0D01*
G01*
X241032500Y-42545000D02*
G75*
G03*
X241032500Y-42545000I-367500J0D01*
G01*
%TO.C,SW21*%
X120382500Y-26035000D02*
G75*
G03*
X120382500Y-26035000I-367500J0D01*
G01*
X126732500Y-23495000D02*
G75*
G03*
X126732500Y-23495000I-367500J0D01*
G01*
%TO.C,SW19*%
X82282500Y-26035000D02*
G75*
G03*
X82282500Y-26035000I-367500J0D01*
G01*
X88632500Y-23495000D02*
G75*
G03*
X88632500Y-23495000I-367500J0D01*
G01*
%TO.C,SW32*%
X63232500Y-45085000D02*
G75*
G03*
X63232500Y-45085000I-367500J0D01*
G01*
X69582500Y-42545000D02*
G75*
G03*
X69582500Y-42545000I-367500J0D01*
G01*
%TO.C,SW20*%
X101332500Y-26035000D02*
G75*
G03*
X101332500Y-26035000I-367500J0D01*
G01*
X107682500Y-23495000D02*
G75*
G03*
X107682500Y-23495000I-367500J0D01*
G01*
%TO.C,SW28*%
X260082500Y-23495000D02*
G75*
G03*
X260082500Y-23495000I-367500J0D01*
G01*
X253732500Y-26035000D02*
G75*
G03*
X253732500Y-26035000I-367500J0D01*
G01*
%TO.C,SW44*%
X25132500Y-64135000D02*
G75*
G03*
X25132500Y-64135000I-367500J0D01*
G01*
X31482500Y-61595000D02*
G75*
G03*
X31482500Y-61595000I-367500J0D01*
G01*
%TO.C,SW27*%
X234682500Y-26035000D02*
G75*
G03*
X234682500Y-26035000I-367500J0D01*
G01*
X241032500Y-23495000D02*
G75*
G03*
X241032500Y-23495000I-367500J0D01*
G01*
%TO.C,SW16*%
X31482500Y-23495000D02*
G75*
G03*
X31482500Y-23495000I-367500J0D01*
G01*
X25132500Y-26035000D02*
G75*
G03*
X25132500Y-26035000I-367500J0D01*
G01*
%TO.C,SW35*%
X120382500Y-45085000D02*
G75*
G03*
X120382500Y-45085000I-367500J0D01*
G01*
X126732500Y-42545000D02*
G75*
G03*
X126732500Y-42545000I-367500J0D01*
G01*
%TD*%
D11*
%TO.C,SW17*%
X52705000Y-28575000D03*
D12*
X47625000Y-28575000D03*
D11*
X42545000Y-28575000D03*
%TD*%
%TO.C,SW31*%
X42545000Y-47625000D03*
X52705000Y-47625000D03*
D12*
X47625000Y-47625000D03*
%TD*%
D13*
%TO.C,H8*%
X19050000Y-92750000D03*
%TD*%
D11*
%TO.C,SW3*%
X42545000Y-9525000D03*
D12*
X47625000Y-9525000D03*
D11*
X52705000Y-9525000D03*
%TD*%
%TO.C,SW30*%
X33655000Y-47625000D03*
D12*
X28575000Y-47625000D03*
D11*
X23495000Y-47625000D03*
%TD*%
%TO.C,SW60*%
X61595000Y-85725000D03*
D12*
X66675000Y-85725000D03*
D11*
X71755000Y-85725000D03*
%TD*%
%TO.C,SW33*%
X90805000Y-47625000D03*
X80645000Y-47625000D03*
D12*
X85725000Y-47625000D03*
%TD*%
%TO.C,SW46*%
X66675000Y-66675000D03*
D11*
X71755000Y-66675000D03*
X61595000Y-66675000D03*
%TD*%
D12*
%TO.C,SW65*%
X200025000Y-85725000D03*
D11*
X205105000Y-85725000D03*
X194945000Y-85725000D03*
%TD*%
%TO.C,SW57*%
X4445000Y-85725000D03*
D12*
X9525000Y-85725000D03*
D11*
X14605000Y-85725000D03*
%TD*%
D14*
%TO.C,U1*%
X142550000Y-1850000D03*
D15*
X140010000Y-1850000D03*
X137470000Y-1850000D03*
X134930000Y-1850000D03*
X132390000Y-1850000D03*
X129850000Y-1850000D03*
X127310000Y-1850000D03*
X124770000Y-1850000D03*
X122230000Y-1850000D03*
X119690000Y-1850000D03*
X117150000Y-1850000D03*
X114610000Y-1850000D03*
X112070000Y-1850000D03*
X109530000Y-1850000D03*
X106990000Y-1850000D03*
X104450000Y-1850000D03*
X101910000Y-1850000D03*
X99370000Y-1850000D03*
X96830000Y-1850000D03*
X94290000Y-1850000D03*
X94290000Y-17090000D03*
X96830000Y-17090000D03*
X99370000Y-17090000D03*
X101910000Y-17090000D03*
X104450000Y-17090000D03*
X106990000Y-17090000D03*
X109530000Y-17090000D03*
X112070000Y-17090000D03*
X114610000Y-17090000D03*
X117150000Y-17090000D03*
X119690000Y-17090000D03*
X122230000Y-17090000D03*
X124770000Y-17090000D03*
X127310000Y-17090000D03*
X129850000Y-17090000D03*
X132390000Y-17090000D03*
X134930000Y-17090000D03*
X137470000Y-17090000D03*
X140010000Y-17090000D03*
X142550000Y-17090000D03*
%TD*%
D11*
%TO.C,SW68*%
X262255000Y-85725000D03*
X252095000Y-85725000D03*
D12*
X257175000Y-85725000D03*
%TD*%
D11*
%TO.C,SW47*%
X80645000Y-66675000D03*
X90805000Y-66675000D03*
D12*
X85725000Y-66675000D03*
%TD*%
D11*
%TO.C,SW51*%
X167005000Y-66675000D03*
D12*
X161925000Y-66675000D03*
D11*
X156845000Y-66675000D03*
%TD*%
%TO.C,SW43*%
X14605000Y-66675000D03*
D12*
X9525000Y-66675000D03*
D11*
X4445000Y-66675000D03*
%TD*%
%TO.C,SW58*%
X33655000Y-85725000D03*
D12*
X28575000Y-85725000D03*
D11*
X23495000Y-85725000D03*
%TD*%
%TO.C,SW1*%
X14605000Y-9525000D03*
D12*
X9525000Y-9525000D03*
D11*
X4445000Y-9525000D03*
%TD*%
D12*
%TO.C,SW42*%
X257175000Y-47625000D03*
D11*
X262255000Y-47625000D03*
X252095000Y-47625000D03*
%TD*%
%TO.C,SW11*%
X194945000Y-9525000D03*
D12*
X200025000Y-9525000D03*
D11*
X205105000Y-9525000D03*
%TD*%
D12*
%TO.C,SW54*%
X219075000Y-66675000D03*
D11*
X213995000Y-66675000D03*
X224155000Y-66675000D03*
%TD*%
D12*
%TO.C,SW38*%
X180975000Y-47625000D03*
D11*
X175895000Y-47625000D03*
X186055000Y-47625000D03*
%TD*%
%TO.C,SW63*%
X137795000Y-85725000D03*
X147955000Y-85725000D03*
D12*
X142875000Y-85725000D03*
%TD*%
D11*
%TO.C,SW5*%
X90805000Y-9525000D03*
D12*
X85725000Y-9525000D03*
D11*
X80645000Y-9525000D03*
%TD*%
D12*
%TO.C,SW10*%
X180975000Y-9525000D03*
D11*
X186055000Y-9525000D03*
X175895000Y-9525000D03*
%TD*%
D12*
%TO.C,SW52*%
X180975000Y-66675000D03*
D11*
X175895000Y-66675000D03*
X186055000Y-66675000D03*
%TD*%
D13*
%TO.C,H3*%
X171450000Y-19050000D03*
%TD*%
D11*
%TO.C,SW23*%
X167005000Y-28575000D03*
D12*
X161925000Y-28575000D03*
D11*
X156845000Y-28575000D03*
%TD*%
D12*
%TO.C,SW48*%
X104775000Y-66675000D03*
D11*
X109855000Y-66675000D03*
X99695000Y-66675000D03*
%TD*%
D13*
%TO.C,H7*%
X209550000Y-76200000D03*
%TD*%
D11*
%TO.C,SW39*%
X194945000Y-47625000D03*
D12*
X200025000Y-47625000D03*
D11*
X205105000Y-47625000D03*
%TD*%
D13*
%TO.C,H9*%
X247650000Y-92750000D03*
%TD*%
D11*
%TO.C,SW14*%
X262255000Y-9525000D03*
D12*
X257175000Y-9525000D03*
D11*
X252095000Y-9525000D03*
%TD*%
D12*
%TO.C,SW59*%
X47625000Y-85725000D03*
D11*
X52705000Y-85725000D03*
X42545000Y-85725000D03*
%TD*%
%TO.C,SW56*%
X252095000Y-66675000D03*
D12*
X257175000Y-66675000D03*
D11*
X262255000Y-66675000D03*
%TD*%
%TO.C,SW49*%
X128905000Y-66675000D03*
D12*
X123825000Y-66675000D03*
D11*
X118745000Y-66675000D03*
%TD*%
%TO.C,SW66*%
X213995000Y-85725000D03*
X224155000Y-85725000D03*
D12*
X219075000Y-85725000D03*
%TD*%
%TO.C,SW50*%
X142875000Y-66675000D03*
D11*
X137795000Y-66675000D03*
X147955000Y-66675000D03*
%TD*%
D13*
%TO.C,H6*%
X133350000Y-76200000D03*
%TD*%
D12*
%TO.C,SW13*%
X238125000Y-9525000D03*
D11*
X233045000Y-9525000D03*
X243205000Y-9525000D03*
%TD*%
%TO.C,SW9*%
X167005000Y-9525000D03*
D12*
X161925000Y-9525000D03*
D11*
X156845000Y-9525000D03*
%TD*%
%TO.C,SW45*%
X52705000Y-66675000D03*
D12*
X47625000Y-66675000D03*
D11*
X42545000Y-66675000D03*
%TD*%
D12*
%TO.C,SW4*%
X66675000Y-9525000D03*
D11*
X71755000Y-9525000D03*
X61595000Y-9525000D03*
%TD*%
%TO.C,SW6*%
X109855000Y-9525000D03*
D12*
X104775000Y-9525000D03*
D11*
X99695000Y-9525000D03*
%TD*%
%TO.C,SW40*%
X213995000Y-47625000D03*
X224155000Y-47625000D03*
D12*
X219075000Y-47625000D03*
%TD*%
D11*
%TO.C,SW53*%
X194945000Y-66675000D03*
X205105000Y-66675000D03*
D12*
X200025000Y-66675000D03*
%TD*%
%TO.C,SW29*%
X9525000Y-47625000D03*
D11*
X4445000Y-47625000D03*
X14605000Y-47625000D03*
%TD*%
%TO.C,SW22*%
X147955000Y-28575000D03*
D12*
X142875000Y-28575000D03*
D11*
X137795000Y-28575000D03*
%TD*%
D12*
%TO.C,SW34*%
X104775000Y-47625000D03*
D11*
X99695000Y-47625000D03*
X109855000Y-47625000D03*
%TD*%
%TO.C,SW7*%
X128905000Y-9525000D03*
D12*
X123825000Y-9525000D03*
D11*
X118745000Y-9525000D03*
%TD*%
%TO.C,SW24*%
X186055000Y-28575000D03*
X175895000Y-28575000D03*
D12*
X180975000Y-28575000D03*
%TD*%
%TO.C,SW62*%
X123825000Y-85725000D03*
D11*
X118745000Y-85725000D03*
X128905000Y-85725000D03*
%TD*%
D12*
%TO.C,SW15*%
X9525000Y-28575000D03*
D11*
X14605000Y-28575000D03*
X4445000Y-28575000D03*
%TD*%
D13*
%TO.C,H4*%
X247650000Y-2500000D03*
%TD*%
D11*
%TO.C,SW2*%
X23495000Y-9525000D03*
D12*
X28575000Y-9525000D03*
D11*
X33655000Y-9525000D03*
%TD*%
D13*
%TO.C,H5*%
X57150000Y-76200000D03*
%TD*%
D11*
%TO.C,SW18*%
X71755000Y-28575000D03*
D12*
X66675000Y-28575000D03*
D11*
X61595000Y-28575000D03*
%TD*%
%TO.C,SW12*%
X224155000Y-9525000D03*
D12*
X219075000Y-9525000D03*
D11*
X213995000Y-9525000D03*
%TD*%
D16*
%TO.C,SW61*%
X107156250Y-92710000D03*
D12*
X95250000Y-85725000D03*
D16*
X83343750Y-92710000D03*
D12*
X83343750Y-77470000D03*
D11*
X100330000Y-85725000D03*
D12*
X107156250Y-77470000D03*
D11*
X90170000Y-85725000D03*
%TD*%
D12*
%TO.C,SW67*%
X238125000Y-85725000D03*
D11*
X243205000Y-85725000D03*
X233045000Y-85725000D03*
%TD*%
D12*
%TO.C,SW36*%
X142875000Y-47625000D03*
D11*
X147955000Y-47625000D03*
X137795000Y-47625000D03*
%TD*%
D12*
%TO.C,SW55*%
X238125000Y-66675000D03*
D11*
X243205000Y-66675000D03*
X233045000Y-66675000D03*
%TD*%
D12*
%TO.C,SW26*%
X219075000Y-28575000D03*
D11*
X213995000Y-28575000D03*
X224155000Y-28575000D03*
%TD*%
D13*
%TO.C,H2*%
X76200000Y-19050000D03*
%TD*%
D11*
%TO.C,SW8*%
X137795000Y-9525000D03*
D12*
X142875000Y-9525000D03*
D11*
X147955000Y-9525000D03*
%TD*%
D12*
%TO.C,SW37*%
X161925000Y-47625000D03*
D11*
X167005000Y-47625000D03*
X156845000Y-47625000D03*
%TD*%
%TO.C,SW25*%
X205105000Y-28575000D03*
X194945000Y-28575000D03*
D12*
X200025000Y-28575000D03*
%TD*%
%TO.C,SW64*%
X183356250Y-77470000D03*
D11*
X166370000Y-85725000D03*
D16*
X159543750Y-92710000D03*
D12*
X171450000Y-85725000D03*
D16*
X183356250Y-92710000D03*
D11*
X176530000Y-85725000D03*
D12*
X159543750Y-77470000D03*
%TD*%
D11*
%TO.C,SW41*%
X243205000Y-47625000D03*
D12*
X238125000Y-47625000D03*
D11*
X233045000Y-47625000D03*
%TD*%
D12*
%TO.C,SW21*%
X123825000Y-28575000D03*
D11*
X128905000Y-28575000D03*
X118745000Y-28575000D03*
%TD*%
D12*
%TO.C,SW19*%
X85725000Y-28575000D03*
D11*
X80645000Y-28575000D03*
X90805000Y-28575000D03*
%TD*%
%TO.C,SW32*%
X61595000Y-47625000D03*
X71755000Y-47625000D03*
D12*
X66675000Y-47625000D03*
%TD*%
D11*
%TO.C,SW20*%
X99695000Y-28575000D03*
D12*
X104775000Y-28575000D03*
D11*
X109855000Y-28575000D03*
%TD*%
D13*
%TO.C,H1*%
X19050000Y-2500000D03*
%TD*%
D11*
%TO.C,SW28*%
X262255000Y-28575000D03*
D12*
X257175000Y-28575000D03*
D11*
X252095000Y-28575000D03*
%TD*%
%TO.C,SW44*%
X23495000Y-66675000D03*
D12*
X28575000Y-66675000D03*
D11*
X33655000Y-66675000D03*
%TD*%
%TO.C,SW27*%
X243205000Y-28575000D03*
D12*
X238125000Y-28575000D03*
D11*
X233045000Y-28575000D03*
%TD*%
D12*
%TO.C,SW16*%
X28575000Y-28575000D03*
D11*
X33655000Y-28575000D03*
X23495000Y-28575000D03*
%TD*%
D12*
%TO.C,SW35*%
X123825000Y-47625000D03*
D11*
X128905000Y-47625000D03*
X118745000Y-47625000D03*
%TD*%
D17*
%TO.C,D50*%
X134950000Y-70575000D03*
D18*
X134950000Y-62775000D03*
%TD*%
D17*
%TO.C,D6*%
X96850000Y-14425000D03*
D18*
X96850000Y-6625000D03*
%TD*%
D17*
%TO.C,D28*%
X249250000Y-32475000D03*
D18*
X249250000Y-24675000D03*
%TD*%
D17*
%TO.C,D26*%
X211150000Y-32475000D03*
D18*
X211150000Y-24675000D03*
%TD*%
D17*
%TO.C,D8*%
X134950000Y-14425000D03*
D18*
X134950000Y-6625000D03*
%TD*%
D17*
%TO.C,D34*%
X96850000Y-51525000D03*
D18*
X96850000Y-43725000D03*
%TD*%
D17*
%TO.C,D64*%
X154000000Y-88625000D03*
D18*
X154000000Y-80825000D03*
%TD*%
D17*
%TO.C,D39*%
X207950000Y-51525000D03*
D18*
X207950000Y-43725000D03*
%TD*%
D17*
%TO.C,D58*%
X20650000Y-88625000D03*
D18*
X20650000Y-80825000D03*
%TD*%
D17*
%TO.C,D14*%
X249250000Y-14425000D03*
D18*
X249250000Y-6625000D03*
%TD*%
D17*
%TO.C,D30*%
X20650000Y-51525000D03*
D18*
X20650000Y-43725000D03*
%TD*%
D17*
%TO.C,D36*%
X134950000Y-51525000D03*
D18*
X134950000Y-43725000D03*
%TD*%
D17*
%TO.C,D38*%
X173050000Y-51525000D03*
D18*
X173050000Y-43725000D03*
%TD*%
D17*
%TO.C,D57*%
X17450000Y-88625000D03*
D18*
X17450000Y-80825000D03*
%TD*%
D17*
%TO.C,D19*%
X93650000Y-32475000D03*
D18*
X93650000Y-24675000D03*
%TD*%
D17*
%TO.C,D23*%
X169850000Y-32475000D03*
D18*
X169850000Y-24675000D03*
%TD*%
D17*
%TO.C,D55*%
X246050000Y-70575000D03*
D18*
X246050000Y-62775000D03*
%TD*%
D17*
%TO.C,D10*%
X173050000Y-14425000D03*
D18*
X173050000Y-6625000D03*
%TD*%
D17*
%TO.C,D65*%
X207950000Y-88625000D03*
D18*
X207950000Y-80825000D03*
%TD*%
D17*
%TO.C,D3*%
X55550000Y-14425000D03*
D18*
X55550000Y-6625000D03*
%TD*%
D19*
%TO.C,J2*%
X149810000Y-2725000D03*
X155590000Y-2725000D03*
D20*
X157020000Y-3205000D03*
X148380000Y-3205000D03*
D21*
X148380000Y965000D03*
X157020000Y965000D03*
%TD*%
D17*
%TO.C,D41*%
X246050000Y-51525000D03*
D18*
X246050000Y-43725000D03*
%TD*%
D17*
%TO.C,D53*%
X207950000Y-70575000D03*
D18*
X207950000Y-62775000D03*
%TD*%
D17*
%TO.C,D37*%
X169850000Y-51525000D03*
D18*
X169850000Y-43725000D03*
%TD*%
D17*
%TO.C,D4*%
X58750000Y-14425000D03*
D18*
X58750000Y-6625000D03*
%TD*%
D17*
%TO.C,D51*%
X169850000Y-70575000D03*
D18*
X169850000Y-62775000D03*
%TD*%
D17*
%TO.C,D54*%
X211150000Y-70575000D03*
D18*
X211150000Y-62775000D03*
%TD*%
D17*
%TO.C,D1*%
X17450000Y-14425000D03*
D18*
X17450000Y-6625000D03*
%TD*%
D17*
%TO.C,D11*%
X207950000Y-14425000D03*
D18*
X207950000Y-6625000D03*
%TD*%
D17*
%TO.C,D67*%
X246050000Y-88625000D03*
D18*
X246050000Y-80825000D03*
%TD*%
D17*
%TO.C,D46*%
X58750000Y-70575000D03*
D18*
X58750000Y-62775000D03*
%TD*%
D17*
%TO.C,D49*%
X131750000Y-70575000D03*
D18*
X131750000Y-62775000D03*
%TD*%
D17*
%TO.C,D68*%
X249250000Y-88625000D03*
D18*
X249250000Y-80825000D03*
%TD*%
D17*
%TO.C,D25*%
X207950000Y-32475000D03*
D18*
X207950000Y-24675000D03*
%TD*%
D17*
%TO.C,D12*%
X211150000Y-14425000D03*
D18*
X211150000Y-6625000D03*
%TD*%
D17*
%TO.C,D9*%
X169850000Y-14425000D03*
D18*
X169850000Y-6625000D03*
%TD*%
D17*
%TO.C,D60*%
X58750000Y-88625000D03*
D18*
X58750000Y-80825000D03*
%TD*%
D17*
%TO.C,D24*%
X173050000Y-32475000D03*
D18*
X173050000Y-24675000D03*
%TD*%
D17*
%TO.C,D40*%
X211150000Y-51525000D03*
D18*
X211150000Y-43725000D03*
%TD*%
D17*
%TO.C,D29*%
X17450000Y-51525000D03*
D18*
X17450000Y-43725000D03*
%TD*%
D17*
%TO.C,D42*%
X249250000Y-51525000D03*
D18*
X249250000Y-43725000D03*
%TD*%
D17*
%TO.C,D5*%
X93650000Y-14425000D03*
D18*
X93650000Y-6625000D03*
%TD*%
D17*
%TO.C,D63*%
X150800000Y-88625000D03*
D18*
X150800000Y-80825000D03*
%TD*%
D17*
%TO.C,D16*%
X20650000Y-32475000D03*
D18*
X20650000Y-24675000D03*
%TD*%
D17*
%TO.C,D61*%
X112700000Y-88625000D03*
D18*
X112700000Y-80825000D03*
%TD*%
D17*
%TO.C,D20*%
X96850000Y-32475000D03*
D18*
X96850000Y-24675000D03*
%TD*%
D17*
%TO.C,D31*%
X55550000Y-51525000D03*
D18*
X55550000Y-43725000D03*
%TD*%
D17*
%TO.C,D47*%
X93650000Y-70575000D03*
D18*
X93650000Y-62775000D03*
%TD*%
D17*
%TO.C,D52*%
X173050000Y-70575000D03*
D18*
X173050000Y-62775000D03*
%TD*%
D17*
%TO.C,D32*%
X58750000Y-51525000D03*
D18*
X58750000Y-43725000D03*
%TD*%
D17*
%TO.C,D7*%
X131750000Y-14425000D03*
D18*
X131750000Y-6625000D03*
%TD*%
D17*
%TO.C,D18*%
X58750000Y-32475000D03*
D18*
X58750000Y-24675000D03*
%TD*%
D17*
%TO.C,D48*%
X96850000Y-70575000D03*
D18*
X96850000Y-62775000D03*
%TD*%
D17*
%TO.C,D15*%
X17450000Y-32475000D03*
D18*
X17450000Y-24675000D03*
%TD*%
D17*
%TO.C,D44*%
X20650000Y-70575000D03*
D18*
X20650000Y-62775000D03*
%TD*%
D17*
%TO.C,D13*%
X246050000Y-14425000D03*
D18*
X246050000Y-6625000D03*
%TD*%
D17*
%TO.C,D43*%
X17450000Y-70575000D03*
D18*
X17450000Y-62775000D03*
%TD*%
D17*
%TO.C,D56*%
X249250000Y-70575000D03*
D18*
X249250000Y-62775000D03*
%TD*%
D17*
%TO.C,D66*%
X211150000Y-88625000D03*
D18*
X211150000Y-80825000D03*
%TD*%
D17*
%TO.C,D33*%
X93650000Y-51525000D03*
D18*
X93650000Y-43725000D03*
%TD*%
D17*
%TO.C,D35*%
X131750000Y-51525000D03*
D18*
X131750000Y-43725000D03*
%TD*%
D17*
%TO.C,D59*%
X55550000Y-88625000D03*
D18*
X55550000Y-80825000D03*
%TD*%
D17*
%TO.C,D22*%
X134950000Y-32475000D03*
D18*
X134950000Y-24675000D03*
%TD*%
D17*
%TO.C,D62*%
X115900000Y-88625000D03*
D18*
X115900000Y-80825000D03*
%TD*%
D17*
%TO.C,D27*%
X246050000Y-32475000D03*
D18*
X246050000Y-24675000D03*
%TD*%
D17*
%TO.C,D17*%
X55550000Y-32475000D03*
D18*
X55550000Y-24675000D03*
%TD*%
D17*
%TO.C,D2*%
X20650000Y-14425000D03*
D18*
X20650000Y-6625000D03*
%TD*%
D17*
%TO.C,D21*%
X131750000Y-32475000D03*
D18*
X131750000Y-24675000D03*
%TD*%
D17*
%TO.C,D45*%
X55550000Y-70575000D03*
D18*
X55550000Y-62775000D03*
%TD*%
M02*
