M48
; DRILL file {KiCad (6.0.4)} date Sun Sep 11 20:25:23 2022
; FORMAT={-:-/ absolute / inch / decimal}
; #@! TF.CreationDate,2022-09-11T20:25:23+10:00
; #@! TF.GenerationSoftware,Kicad,Pcbnew,(6.0.4)
; #@! TF.FileFunction,Plated,1,2,PTH
FMAT,2
INCH
; #@! TA.AperFunction,Plated,PTH,ViaDrill
T1C0.0157
; #@! TA.AperFunction,Plated,PTH,ComponentDrill
T2C0.0236
; #@! TA.AperFunction,Plated,PTH,ComponentDrill
T3C0.0276
; #@! TA.AperFunction,Plated,PTH,ComponentDrill
T4C0.0394
; #@! TA.AperFunction,Plated,PTH,ComponentDrill
T5C0.0579
; #@! TA.AperFunction,Plated,PTH,ComponentDrill
T6C0.1594
%
G90
G05
T1
X3.8807Y-1.2968
X3.9685Y-0.8031
X3.9998Y-3.563
X4.6543Y-0.1472
X5.0098Y-1.4961
X5.4094Y-0.4701
X5.5618Y-0.5677
X5.6339Y-0.7913
X5.9189Y-0.2268
X5.9913Y-0.5071
X6.1051Y-0.228
X6.2433Y-0.0882
X8.6961Y-1.5043
T3
X0.687Y-0.2608
X0.687Y-0.5679
X0.687Y-0.9715
X0.687Y-1.2785
X0.687Y-1.7215
X0.687Y-2.0285
X0.687Y-2.4715
X0.687Y-2.7785
X0.687Y-3.1821
X0.687Y-3.4892
X0.813Y-0.2608
X0.813Y-0.5679
X0.813Y-0.9715
X0.813Y-1.2785
X0.813Y-1.7215
X0.813Y-2.0285
X0.813Y-2.4715
X0.813Y-2.7785
X0.813Y-3.1821
X0.813Y-3.4892
X2.187Y-0.2608
X2.187Y-0.5679
X2.187Y-0.9715
X2.187Y-1.2785
X2.187Y-1.7215
X2.187Y-2.0285
X2.187Y-2.4715
X2.187Y-2.7785
X2.187Y-3.1821
X2.187Y-3.4892
X2.313Y-0.2608
X2.313Y-0.5679
X2.313Y-0.9715
X2.313Y-1.2785
X2.313Y-1.7215
X2.313Y-2.0285
X2.313Y-2.4715
X2.313Y-2.7785
X2.313Y-3.1821
X2.313Y-3.4892
X3.687Y-0.2608
X3.687Y-0.5679
X3.687Y-0.9715
X3.687Y-1.2785
X3.687Y-1.7215
X3.687Y-2.0285
X3.687Y-2.4715
X3.687Y-2.7785
X3.813Y-0.2608
X3.813Y-0.5679
X3.813Y-0.9715
X3.813Y-1.2785
X3.813Y-1.7215
X3.813Y-2.0285
X3.813Y-2.4715
X3.813Y-2.7785
X4.437Y-3.1821
X4.437Y-3.4892
X4.563Y-3.1821
X4.563Y-3.4892
X5.187Y-0.2608
X5.187Y-0.5679
X5.187Y-0.9715
X5.187Y-1.2785
X5.187Y-1.7215
X5.187Y-2.0285
X5.187Y-2.4715
X5.187Y-2.7785
X5.313Y-0.2608
X5.313Y-0.5679
X5.313Y-0.9715
X5.313Y-1.2785
X5.313Y-1.7215
X5.313Y-2.0285
X5.313Y-2.4715
X5.313Y-2.7785
X5.937Y-3.1821
X5.937Y-3.4892
X6.063Y-3.1821
X6.063Y-3.4892
X6.687Y-0.2608
X6.687Y-0.5679
X6.687Y-0.9715
X6.687Y-1.2785
X6.687Y-1.7215
X6.687Y-2.0285
X6.687Y-2.4715
X6.687Y-2.7785
X6.813Y-0.2608
X6.813Y-0.5679
X6.813Y-0.9715
X6.813Y-1.2785
X6.813Y-1.7215
X6.813Y-2.0285
X6.813Y-2.4715
X6.813Y-2.7785
X8.187Y-0.2608
X8.187Y-0.5679
X8.187Y-0.9715
X8.187Y-1.2785
X8.187Y-1.7215
X8.187Y-2.0285
X8.187Y-2.4715
X8.187Y-2.7785
X8.187Y-3.1821
X8.187Y-3.4892
X8.313Y-0.2608
X8.313Y-0.5679
X8.313Y-0.9715
X8.313Y-1.2785
X8.313Y-1.7215
X8.313Y-2.0285
X8.313Y-2.4715
X8.313Y-2.7785
X8.313Y-3.1821
X8.313Y-3.4892
X9.687Y-0.2608
X9.687Y-0.5679
X9.687Y-0.9715
X9.687Y-1.2785
X9.687Y-1.7215
X9.687Y-2.0285
X9.687Y-2.4715
X9.687Y-2.7785
X9.687Y-3.1821
X9.687Y-3.4892
X9.813Y-0.2608
X9.813Y-0.5679
X9.813Y-0.9715
X9.813Y-1.2785
X9.813Y-1.7215
X9.813Y-2.0285
X9.813Y-2.4715
X9.813Y-2.7785
X9.813Y-3.1821
X9.813Y-3.4892
T4
X3.7122Y-0.0728
X3.7122Y-0.6728
X3.8122Y-0.0728
X3.8122Y-0.6728
X3.9122Y-0.0728
X3.9122Y-0.6728
X4.0122Y-0.0728
X4.0122Y-0.6728
X4.1122Y-0.0728
X4.1122Y-0.6728
X4.2122Y-0.0728
X4.2122Y-0.6728
X4.3122Y-0.0728
X4.3122Y-0.6728
X4.4122Y-0.0728
X4.4122Y-0.6728
X4.5122Y-0.0728
X4.5122Y-0.6728
X4.6122Y-0.0728
X4.6122Y-0.6728
X4.7122Y-0.0728
X4.7122Y-0.6728
X4.8122Y-0.0728
X4.8122Y-0.6728
X4.9122Y-0.0728
X4.9122Y-0.6728
X5.0122Y-0.0728
X5.0122Y-0.6728
X5.1122Y-0.0728
X5.1122Y-0.6728
X5.2122Y-0.0728
X5.2122Y-0.6728
X5.3122Y-0.0728
X5.3122Y-0.6728
X5.4122Y-0.0728
X5.4122Y-0.6728
X5.5122Y-0.0728
X5.5122Y-0.6728
X5.6122Y-0.0728
X5.6122Y-0.6728
T5
X0.225Y-0.275
X0.225Y-1.025
X0.225Y-1.775
X0.225Y-2.525
X0.225Y-3.275
X0.475Y-0.175
X0.475Y-0.925
X0.475Y-1.675
X0.475Y-2.425
X0.475Y-3.175
X0.975Y-0.275
X0.975Y-1.025
X0.975Y-1.775
X0.975Y-2.525
X0.975Y-3.275
X1.225Y-0.175
X1.225Y-0.925
X1.225Y-1.675
X1.225Y-2.425
X1.225Y-3.175
X1.725Y-0.275
X1.725Y-1.025
X1.725Y-1.775
X1.725Y-2.525
X1.725Y-3.275
X1.975Y-0.175
X1.975Y-0.925
X1.975Y-1.675
X1.975Y-2.425
X1.975Y-3.175
X2.475Y-0.275
X2.475Y-1.025
X2.475Y-1.775
X2.475Y-2.525
X2.475Y-3.275
X2.725Y-0.175
X2.725Y-0.925
X2.725Y-1.675
X2.725Y-2.425
X2.725Y-3.175
X3.225Y-0.275
X3.225Y-1.025
X3.225Y-1.775
X3.225Y-2.525
X3.475Y-0.175
X3.475Y-0.925
X3.475Y-1.675
X3.475Y-2.425
X3.6Y-3.275
X3.85Y-3.175
X3.975Y-0.275
X3.975Y-1.025
X3.975Y-1.775
X3.975Y-2.525
X4.225Y-0.175
X4.225Y-0.925
X4.225Y-1.675
X4.225Y-2.425
X4.725Y-0.275
X4.725Y-1.025
X4.725Y-1.775
X4.725Y-2.525
X4.725Y-3.275
X4.975Y-0.175
X4.975Y-0.925
X4.975Y-1.675
X4.975Y-2.425
X4.975Y-3.175
X5.475Y-0.275
X5.475Y-1.025
X5.475Y-1.775
X5.475Y-2.525
X5.475Y-3.275
X5.725Y-0.175
X5.725Y-0.925
X5.725Y-1.675
X5.725Y-2.425
X5.725Y-3.175
X6.225Y-0.275
X6.225Y-1.025
X6.225Y-1.775
X6.225Y-2.525
X6.475Y-0.175
X6.475Y-0.925
X6.475Y-1.675
X6.475Y-2.425
X6.6Y-3.275
X6.85Y-3.175
X6.975Y-0.275
X6.975Y-1.025
X6.975Y-1.775
X6.975Y-2.525
X7.225Y-0.175
X7.225Y-0.925
X7.225Y-1.675
X7.225Y-2.425
X7.725Y-0.275
X7.725Y-1.025
X7.725Y-1.775
X7.725Y-2.525
X7.725Y-3.275
X7.975Y-0.175
X7.975Y-0.925
X7.975Y-1.675
X7.975Y-2.425
X7.975Y-3.175
X8.475Y-0.275
X8.475Y-1.025
X8.475Y-1.775
X8.475Y-2.525
X8.475Y-3.275
X8.725Y-0.175
X8.725Y-0.925
X8.725Y-1.675
X8.725Y-2.425
X8.725Y-3.175
X9.225Y-0.275
X9.225Y-1.025
X9.225Y-1.775
X9.225Y-2.525
X9.225Y-3.275
X9.475Y-0.175
X9.475Y-0.925
X9.475Y-1.675
X9.475Y-2.425
X9.475Y-3.175
X9.975Y-0.275
X9.975Y-1.025
X9.975Y-1.775
X9.975Y-2.525
X9.975Y-3.275
X10.225Y-0.175
X10.225Y-0.925
X10.225Y-1.675
X10.225Y-2.425
X10.225Y-3.175
T6
X0.75Y-0.0984
X0.75Y-3.6516
X2.25Y-3.0
X3.0Y-0.75
X5.25Y-3.0
X6.75Y-0.75
X8.25Y-3.0
X9.75Y-0.0984
X9.75Y-3.6516
T2
G00X5.8417Y0.0537
M15
G01X5.8417Y0.0222
M16
G05
G00X5.8417Y-0.1045
M15
G01X5.8417Y-0.1478
M16
G05
G00X6.1819Y0.0537
M15
G01X6.1819Y0.0222
M16
G05
G00X6.1819Y-0.1045
M15
G01X6.1819Y-0.1478
M16
G05
T0
M30
