%TF.GenerationSoftware,KiCad,Pcbnew,(6.0.4)*%
%TF.CreationDate,2022-09-11T20:25:19+10:00*%
%TF.ProjectId,pcb,7063622e-6b69-4636-9164-5f7063625858,rev?*%
%TF.SameCoordinates,Original*%
%TF.FileFunction,Soldermask,Bot*%
%TF.FilePolarity,Negative*%
%FSLAX46Y46*%
G04 Gerber Fmt 4.6, Leading zero omitted, Abs format (unit mm)*
G04 Created by KiCad (PCBNEW (6.0.4)) date 2022-09-11 20:25:19*
%MOMM*%
%LPD*%
G01*
G04 APERTURE LIST*
G04 Aperture macros list*
%AMRoundRect*
0 Rectangle with rounded corners*
0 $1 Rounding radius*
0 $2 $3 $4 $5 $6 $7 $8 $9 X,Y pos of 4 corners*
0 Add a 4 corners polygon primitive as box body*
4,1,4,$2,$3,$4,$5,$6,$7,$8,$9,$2,$3,0*
0 Add four circle primitives for the rounded corners*
1,1,$1+$1,$2,$3*
1,1,$1+$1,$4,$5*
1,1,$1+$1,$6,$7*
1,1,$1+$1,$8,$9*
0 Add four rect primitives between the rounded corners*
20,1,$1+$1,$2,$3,$4,$5,0*
20,1,$1+$1,$4,$5,$6,$7,0*
20,1,$1+$1,$6,$7,$8,$9,0*
20,1,$1+$1,$8,$9,$2,$3,0*%
G04 Aperture macros list end*
%ADD10C,1.750000*%
%ADD11C,3.987800*%
%ADD12C,2.250000*%
%ADD13C,4.550000*%
%ADD14R,1.700000X1.700000*%
%ADD15C,1.700000*%
%ADD16C,3.048000*%
%ADD17R,1.200000X1.200000*%
%ADD18R,1.600000X1.600000*%
%ADD19C,1.600000*%
%ADD20RoundRect,0.250000X-0.450000X0.350000X-0.450000X-0.350000X0.450000X-0.350000X0.450000X0.350000X0*%
%ADD21R,1.524000X1.524000*%
%ADD22RoundRect,0.160000X-0.160000X0.197500X-0.160000X-0.197500X0.160000X-0.197500X0.160000X0.197500X0*%
%ADD23C,0.600000*%
%ADD24R,0.600000X1.160000*%
%ADD25R,0.300000X1.160000*%
%ADD26O,0.900000X2.000000*%
%ADD27O,0.900000X1.700000*%
%ADD28RoundRect,0.160000X0.197500X0.160000X-0.197500X0.160000X-0.197500X-0.160000X0.197500X-0.160000X0*%
%ADD29R,3.000000X1.524000*%
G04 APERTURE END LIST*
D10*
%TO.C,SW17*%
X52705000Y-28575000D03*
D11*
X47625000Y-28575000D03*
D10*
X42545000Y-28575000D03*
D12*
X43815000Y-26035000D03*
X50165000Y-23495000D03*
%TD*%
D10*
%TO.C,SW31*%
X42545000Y-47625000D03*
X52705000Y-47625000D03*
D11*
X47625000Y-47625000D03*
D12*
X43815000Y-45085000D03*
X50165000Y-42545000D03*
%TD*%
D13*
%TO.C,H8*%
X19050000Y-92750000D03*
%TD*%
D10*
%TO.C,SW3*%
X42545000Y-9525000D03*
D11*
X47625000Y-9525000D03*
D10*
X52705000Y-9525000D03*
D12*
X43815000Y-6985000D03*
X50165000Y-4445000D03*
%TD*%
D10*
%TO.C,SW30*%
X33655000Y-47625000D03*
D11*
X28575000Y-47625000D03*
D10*
X23495000Y-47625000D03*
D12*
X24765000Y-45085000D03*
X31115000Y-42545000D03*
%TD*%
D10*
%TO.C,SW60*%
X61595000Y-85725000D03*
D11*
X66675000Y-85725000D03*
D10*
X71755000Y-85725000D03*
D12*
X62865000Y-83185000D03*
X69215000Y-80645000D03*
%TD*%
D10*
%TO.C,SW33*%
X90805000Y-47625000D03*
X80645000Y-47625000D03*
D11*
X85725000Y-47625000D03*
D12*
X81915000Y-45085000D03*
X88265000Y-42545000D03*
%TD*%
D11*
%TO.C,SW46*%
X66675000Y-66675000D03*
D10*
X71755000Y-66675000D03*
X61595000Y-66675000D03*
D12*
X62865000Y-64135000D03*
X69215000Y-61595000D03*
%TD*%
D11*
%TO.C,SW65*%
X200025000Y-85725000D03*
D10*
X205105000Y-85725000D03*
X194945000Y-85725000D03*
D12*
X196215000Y-83185000D03*
X202565000Y-80645000D03*
%TD*%
D10*
%TO.C,SW57*%
X4445000Y-85725000D03*
D11*
X9525000Y-85725000D03*
D10*
X14605000Y-85725000D03*
D12*
X5715000Y-83185000D03*
X12065000Y-80645000D03*
%TD*%
D14*
%TO.C,U1*%
X142550000Y-1850000D03*
D15*
X140010000Y-1850000D03*
X137470000Y-1850000D03*
X134930000Y-1850000D03*
X132390000Y-1850000D03*
X129850000Y-1850000D03*
X127310000Y-1850000D03*
X124770000Y-1850000D03*
X122230000Y-1850000D03*
X119690000Y-1850000D03*
X117150000Y-1850000D03*
X114610000Y-1850000D03*
X112070000Y-1850000D03*
X109530000Y-1850000D03*
X106990000Y-1850000D03*
X104450000Y-1850000D03*
X101910000Y-1850000D03*
X99370000Y-1850000D03*
X96830000Y-1850000D03*
X94290000Y-1850000D03*
X94290000Y-17090000D03*
X96830000Y-17090000D03*
X99370000Y-17090000D03*
X101910000Y-17090000D03*
X104450000Y-17090000D03*
X106990000Y-17090000D03*
X109530000Y-17090000D03*
X112070000Y-17090000D03*
X114610000Y-17090000D03*
X117150000Y-17090000D03*
X119690000Y-17090000D03*
X122230000Y-17090000D03*
X124770000Y-17090000D03*
X127310000Y-17090000D03*
X129850000Y-17090000D03*
X132390000Y-17090000D03*
X134930000Y-17090000D03*
X137470000Y-17090000D03*
X140010000Y-17090000D03*
X142550000Y-17090000D03*
%TD*%
D10*
%TO.C,SW68*%
X262255000Y-85725000D03*
X252095000Y-85725000D03*
D11*
X257175000Y-85725000D03*
D12*
X253365000Y-83185000D03*
X259715000Y-80645000D03*
%TD*%
D10*
%TO.C,SW47*%
X80645000Y-66675000D03*
X90805000Y-66675000D03*
D11*
X85725000Y-66675000D03*
D12*
X81915000Y-64135000D03*
X88265000Y-61595000D03*
%TD*%
D10*
%TO.C,SW51*%
X167005000Y-66675000D03*
D11*
X161925000Y-66675000D03*
D10*
X156845000Y-66675000D03*
D12*
X158115000Y-64135000D03*
X164465000Y-61595000D03*
%TD*%
D10*
%TO.C,SW43*%
X14605000Y-66675000D03*
D11*
X9525000Y-66675000D03*
D10*
X4445000Y-66675000D03*
D12*
X5715000Y-64135000D03*
X12065000Y-61595000D03*
%TD*%
D10*
%TO.C,SW58*%
X33655000Y-85725000D03*
D11*
X28575000Y-85725000D03*
D10*
X23495000Y-85725000D03*
D12*
X24765000Y-83185000D03*
X31115000Y-80645000D03*
%TD*%
D10*
%TO.C,SW1*%
X14605000Y-9525000D03*
D11*
X9525000Y-9525000D03*
D10*
X4445000Y-9525000D03*
D12*
X5715000Y-6985000D03*
X12065000Y-4445000D03*
%TD*%
D11*
%TO.C,SW42*%
X257175000Y-47625000D03*
D10*
X262255000Y-47625000D03*
X252095000Y-47625000D03*
D12*
X253365000Y-45085000D03*
X259715000Y-42545000D03*
%TD*%
D10*
%TO.C,SW11*%
X194945000Y-9525000D03*
D11*
X200025000Y-9525000D03*
D10*
X205105000Y-9525000D03*
D12*
X196215000Y-6985000D03*
X202565000Y-4445000D03*
%TD*%
D11*
%TO.C,SW54*%
X219075000Y-66675000D03*
D10*
X213995000Y-66675000D03*
X224155000Y-66675000D03*
D12*
X215265000Y-64135000D03*
X221615000Y-61595000D03*
%TD*%
D11*
%TO.C,SW38*%
X180975000Y-47625000D03*
D10*
X175895000Y-47625000D03*
X186055000Y-47625000D03*
D12*
X177165000Y-45085000D03*
X183515000Y-42545000D03*
%TD*%
D10*
%TO.C,SW63*%
X137795000Y-85725000D03*
X147955000Y-85725000D03*
D11*
X142875000Y-85725000D03*
D12*
X139065000Y-83185000D03*
X145415000Y-80645000D03*
%TD*%
D10*
%TO.C,SW5*%
X90805000Y-9525000D03*
D11*
X85725000Y-9525000D03*
D10*
X80645000Y-9525000D03*
D12*
X81915000Y-6985000D03*
X88265000Y-4445000D03*
%TD*%
D11*
%TO.C,SW10*%
X180975000Y-9525000D03*
D10*
X186055000Y-9525000D03*
X175895000Y-9525000D03*
D12*
X177165000Y-6985000D03*
X183515000Y-4445000D03*
%TD*%
D11*
%TO.C,SW52*%
X180975000Y-66675000D03*
D10*
X175895000Y-66675000D03*
X186055000Y-66675000D03*
D12*
X177165000Y-64135000D03*
X183515000Y-61595000D03*
%TD*%
D13*
%TO.C,H3*%
X171450000Y-19050000D03*
%TD*%
D10*
%TO.C,SW23*%
X167005000Y-28575000D03*
D11*
X161925000Y-28575000D03*
D10*
X156845000Y-28575000D03*
D12*
X158115000Y-26035000D03*
X164465000Y-23495000D03*
%TD*%
D11*
%TO.C,SW48*%
X104775000Y-66675000D03*
D10*
X109855000Y-66675000D03*
X99695000Y-66675000D03*
D12*
X100965000Y-64135000D03*
X107315000Y-61595000D03*
%TD*%
D13*
%TO.C,H7*%
X209550000Y-76200000D03*
%TD*%
D10*
%TO.C,SW39*%
X194945000Y-47625000D03*
D11*
X200025000Y-47625000D03*
D10*
X205105000Y-47625000D03*
D12*
X196215000Y-45085000D03*
X202565000Y-42545000D03*
%TD*%
D13*
%TO.C,H9*%
X247650000Y-92750000D03*
%TD*%
D10*
%TO.C,SW14*%
X262255000Y-9525000D03*
D11*
X257175000Y-9525000D03*
D10*
X252095000Y-9525000D03*
D12*
X253365000Y-6985000D03*
X259715000Y-4445000D03*
%TD*%
D11*
%TO.C,SW59*%
X47625000Y-85725000D03*
D10*
X52705000Y-85725000D03*
X42545000Y-85725000D03*
D12*
X43815000Y-83185000D03*
X50165000Y-80645000D03*
%TD*%
D10*
%TO.C,SW56*%
X252095000Y-66675000D03*
D11*
X257175000Y-66675000D03*
D10*
X262255000Y-66675000D03*
D12*
X253365000Y-64135000D03*
X259715000Y-61595000D03*
%TD*%
D10*
%TO.C,SW49*%
X128905000Y-66675000D03*
D11*
X123825000Y-66675000D03*
D10*
X118745000Y-66675000D03*
D12*
X120015000Y-64135000D03*
X126365000Y-61595000D03*
%TD*%
D10*
%TO.C,SW66*%
X213995000Y-85725000D03*
X224155000Y-85725000D03*
D11*
X219075000Y-85725000D03*
D12*
X215265000Y-83185000D03*
X221615000Y-80645000D03*
%TD*%
D11*
%TO.C,SW50*%
X142875000Y-66675000D03*
D10*
X137795000Y-66675000D03*
X147955000Y-66675000D03*
D12*
X139065000Y-64135000D03*
X145415000Y-61595000D03*
%TD*%
D13*
%TO.C,H6*%
X133350000Y-76200000D03*
%TD*%
D11*
%TO.C,SW13*%
X238125000Y-9525000D03*
D10*
X233045000Y-9525000D03*
X243205000Y-9525000D03*
D12*
X234315000Y-6985000D03*
X240665000Y-4445000D03*
%TD*%
D10*
%TO.C,SW9*%
X167005000Y-9525000D03*
D11*
X161925000Y-9525000D03*
D10*
X156845000Y-9525000D03*
D12*
X158115000Y-6985000D03*
X164465000Y-4445000D03*
%TD*%
D10*
%TO.C,SW45*%
X52705000Y-66675000D03*
D11*
X47625000Y-66675000D03*
D10*
X42545000Y-66675000D03*
D12*
X43815000Y-64135000D03*
X50165000Y-61595000D03*
%TD*%
D11*
%TO.C,SW4*%
X66675000Y-9525000D03*
D10*
X71755000Y-9525000D03*
X61595000Y-9525000D03*
D12*
X62865000Y-6985000D03*
X69215000Y-4445000D03*
%TD*%
D10*
%TO.C,SW6*%
X109855000Y-9525000D03*
D11*
X104775000Y-9525000D03*
D10*
X99695000Y-9525000D03*
D12*
X100965000Y-6985000D03*
X107315000Y-4445000D03*
%TD*%
D10*
%TO.C,SW40*%
X213995000Y-47625000D03*
X224155000Y-47625000D03*
D11*
X219075000Y-47625000D03*
D12*
X215265000Y-45085000D03*
X221615000Y-42545000D03*
%TD*%
D10*
%TO.C,SW53*%
X194945000Y-66675000D03*
X205105000Y-66675000D03*
D11*
X200025000Y-66675000D03*
D12*
X196215000Y-64135000D03*
X202565000Y-61595000D03*
%TD*%
D11*
%TO.C,SW29*%
X9525000Y-47625000D03*
D10*
X4445000Y-47625000D03*
X14605000Y-47625000D03*
D12*
X5715000Y-45085000D03*
X12065000Y-42545000D03*
%TD*%
D10*
%TO.C,SW22*%
X147955000Y-28575000D03*
D11*
X142875000Y-28575000D03*
D10*
X137795000Y-28575000D03*
D12*
X139065000Y-26035000D03*
X145415000Y-23495000D03*
%TD*%
D11*
%TO.C,SW34*%
X104775000Y-47625000D03*
D10*
X99695000Y-47625000D03*
X109855000Y-47625000D03*
D12*
X100965000Y-45085000D03*
X107315000Y-42545000D03*
%TD*%
D10*
%TO.C,SW7*%
X128905000Y-9525000D03*
D11*
X123825000Y-9525000D03*
D10*
X118745000Y-9525000D03*
D12*
X120015000Y-6985000D03*
X126365000Y-4445000D03*
%TD*%
D10*
%TO.C,SW24*%
X186055000Y-28575000D03*
X175895000Y-28575000D03*
D11*
X180975000Y-28575000D03*
D12*
X177165000Y-26035000D03*
X183515000Y-23495000D03*
%TD*%
D11*
%TO.C,SW62*%
X123825000Y-85725000D03*
D10*
X118745000Y-85725000D03*
X128905000Y-85725000D03*
D12*
X120015000Y-83185000D03*
X126365000Y-80645000D03*
%TD*%
D11*
%TO.C,SW15*%
X9525000Y-28575000D03*
D10*
X14605000Y-28575000D03*
X4445000Y-28575000D03*
D12*
X5715000Y-26035000D03*
X12065000Y-23495000D03*
%TD*%
D13*
%TO.C,H4*%
X247650000Y-2500000D03*
%TD*%
D10*
%TO.C,SW2*%
X23495000Y-9525000D03*
D11*
X28575000Y-9525000D03*
D10*
X33655000Y-9525000D03*
D12*
X24765000Y-6985000D03*
X31115000Y-4445000D03*
%TD*%
D13*
%TO.C,H5*%
X57150000Y-76200000D03*
%TD*%
D10*
%TO.C,SW18*%
X71755000Y-28575000D03*
D11*
X66675000Y-28575000D03*
D10*
X61595000Y-28575000D03*
D12*
X62865000Y-26035000D03*
X69215000Y-23495000D03*
%TD*%
D10*
%TO.C,SW12*%
X224155000Y-9525000D03*
D11*
X219075000Y-9525000D03*
D10*
X213995000Y-9525000D03*
D12*
X215265000Y-6985000D03*
X221615000Y-4445000D03*
%TD*%
D16*
%TO.C,SW61*%
X107156250Y-92710000D03*
D11*
X95250000Y-85725000D03*
D16*
X83343750Y-92710000D03*
D11*
X83343750Y-77470000D03*
D10*
X100330000Y-85725000D03*
D11*
X107156250Y-77470000D03*
D10*
X90170000Y-85725000D03*
D12*
X91440000Y-83185000D03*
X97790000Y-80645000D03*
%TD*%
D11*
%TO.C,SW67*%
X238125000Y-85725000D03*
D10*
X243205000Y-85725000D03*
X233045000Y-85725000D03*
D12*
X234315000Y-83185000D03*
X240665000Y-80645000D03*
%TD*%
D11*
%TO.C,SW36*%
X142875000Y-47625000D03*
D10*
X147955000Y-47625000D03*
X137795000Y-47625000D03*
D12*
X139065000Y-45085000D03*
X145415000Y-42545000D03*
%TD*%
D11*
%TO.C,SW55*%
X238125000Y-66675000D03*
D10*
X243205000Y-66675000D03*
X233045000Y-66675000D03*
D12*
X234315000Y-64135000D03*
X240665000Y-61595000D03*
%TD*%
D11*
%TO.C,SW26*%
X219075000Y-28575000D03*
D10*
X213995000Y-28575000D03*
X224155000Y-28575000D03*
D12*
X215265000Y-26035000D03*
X221615000Y-23495000D03*
%TD*%
D13*
%TO.C,H2*%
X76200000Y-19050000D03*
%TD*%
D10*
%TO.C,SW8*%
X137795000Y-9525000D03*
D11*
X142875000Y-9525000D03*
D10*
X147955000Y-9525000D03*
D12*
X139065000Y-6985000D03*
X145415000Y-4445000D03*
%TD*%
D11*
%TO.C,SW37*%
X161925000Y-47625000D03*
D10*
X167005000Y-47625000D03*
X156845000Y-47625000D03*
D12*
X158115000Y-45085000D03*
X164465000Y-42545000D03*
%TD*%
D10*
%TO.C,SW25*%
X205105000Y-28575000D03*
X194945000Y-28575000D03*
D11*
X200025000Y-28575000D03*
D12*
X196215000Y-26035000D03*
X202565000Y-23495000D03*
%TD*%
D11*
%TO.C,SW64*%
X183356250Y-77470000D03*
D10*
X166370000Y-85725000D03*
D16*
X159543750Y-92710000D03*
D11*
X171450000Y-85725000D03*
D16*
X183356250Y-92710000D03*
D10*
X176530000Y-85725000D03*
D11*
X159543750Y-77470000D03*
D12*
X167640000Y-83185000D03*
X173990000Y-80645000D03*
%TD*%
D10*
%TO.C,SW41*%
X243205000Y-47625000D03*
D11*
X238125000Y-47625000D03*
D10*
X233045000Y-47625000D03*
D12*
X234315000Y-45085000D03*
X240665000Y-42545000D03*
%TD*%
D11*
%TO.C,SW21*%
X123825000Y-28575000D03*
D10*
X128905000Y-28575000D03*
X118745000Y-28575000D03*
D12*
X120015000Y-26035000D03*
X126365000Y-23495000D03*
%TD*%
D11*
%TO.C,SW19*%
X85725000Y-28575000D03*
D10*
X80645000Y-28575000D03*
X90805000Y-28575000D03*
D12*
X81915000Y-26035000D03*
X88265000Y-23495000D03*
%TD*%
D10*
%TO.C,SW32*%
X61595000Y-47625000D03*
X71755000Y-47625000D03*
D11*
X66675000Y-47625000D03*
D12*
X62865000Y-45085000D03*
X69215000Y-42545000D03*
%TD*%
D10*
%TO.C,SW20*%
X99695000Y-28575000D03*
D11*
X104775000Y-28575000D03*
D10*
X109855000Y-28575000D03*
D12*
X100965000Y-26035000D03*
X107315000Y-23495000D03*
%TD*%
D13*
%TO.C,H1*%
X19050000Y-2500000D03*
%TD*%
D10*
%TO.C,SW28*%
X262255000Y-28575000D03*
D11*
X257175000Y-28575000D03*
D10*
X252095000Y-28575000D03*
D12*
X253365000Y-26035000D03*
X259715000Y-23495000D03*
%TD*%
D10*
%TO.C,SW44*%
X23495000Y-66675000D03*
D11*
X28575000Y-66675000D03*
D10*
X33655000Y-66675000D03*
D12*
X24765000Y-64135000D03*
X31115000Y-61595000D03*
%TD*%
D10*
%TO.C,SW27*%
X243205000Y-28575000D03*
D11*
X238125000Y-28575000D03*
D10*
X233045000Y-28575000D03*
D12*
X234315000Y-26035000D03*
X240665000Y-23495000D03*
%TD*%
D11*
%TO.C,SW16*%
X28575000Y-28575000D03*
D10*
X33655000Y-28575000D03*
X23495000Y-28575000D03*
D12*
X24765000Y-26035000D03*
X31115000Y-23495000D03*
%TD*%
D11*
%TO.C,SW35*%
X123825000Y-47625000D03*
D10*
X128905000Y-47625000D03*
X118745000Y-47625000D03*
D12*
X120015000Y-45085000D03*
X126365000Y-42545000D03*
%TD*%
D17*
%TO.C,D50*%
X134950000Y-68250000D03*
D18*
X134950000Y-70575000D03*
D17*
X134950000Y-65100000D03*
D19*
X134950000Y-62775000D03*
%TD*%
D17*
%TO.C,D6*%
X96850000Y-12100000D03*
D18*
X96850000Y-14425000D03*
D17*
X96850000Y-8950000D03*
D19*
X96850000Y-6625000D03*
%TD*%
D18*
%TO.C,D28*%
X249250000Y-32475000D03*
D17*
X249250000Y-30150000D03*
X249250000Y-27000000D03*
D19*
X249250000Y-24675000D03*
%TD*%
D17*
%TO.C,D26*%
X211150000Y-30150000D03*
D18*
X211150000Y-32475000D03*
D19*
X211150000Y-24675000D03*
D17*
X211150000Y-27000000D03*
%TD*%
%TO.C,D8*%
X134950000Y-12100000D03*
D18*
X134950000Y-14425000D03*
D19*
X134950000Y-6625000D03*
D17*
X134950000Y-8950000D03*
%TD*%
D20*
%TO.C,R3*%
X150300000Y-10800000D03*
X150300000Y-12800000D03*
%TD*%
D18*
%TO.C,D34*%
X96850000Y-51525000D03*
D17*
X96850000Y-49200000D03*
X96850000Y-46050000D03*
D19*
X96850000Y-43725000D03*
%TD*%
D18*
%TO.C,D64*%
X154000000Y-88625000D03*
D17*
X154000000Y-86300000D03*
X154000000Y-83150000D03*
D19*
X154000000Y-80825000D03*
%TD*%
D17*
%TO.C,D39*%
X207950000Y-49200000D03*
D18*
X207950000Y-51525000D03*
D19*
X207950000Y-43725000D03*
D17*
X207950000Y-46050000D03*
%TD*%
%TO.C,D58*%
X20650000Y-86300000D03*
D18*
X20650000Y-88625000D03*
D19*
X20650000Y-80825000D03*
D17*
X20650000Y-83150000D03*
%TD*%
%TO.C,D14*%
X249250000Y-12100000D03*
D18*
X249250000Y-14425000D03*
D17*
X249250000Y-8950000D03*
D19*
X249250000Y-6625000D03*
%TD*%
D17*
%TO.C,D30*%
X20650000Y-49200000D03*
D18*
X20650000Y-51525000D03*
D17*
X20650000Y-46050000D03*
D19*
X20650000Y-43725000D03*
%TD*%
D17*
%TO.C,D36*%
X134950000Y-49200000D03*
D18*
X134950000Y-51525000D03*
D19*
X134950000Y-43725000D03*
D17*
X134950000Y-46050000D03*
%TD*%
D21*
%TO.C,J1*%
X224650000Y-39500000D03*
X224650000Y-36960000D03*
X224650000Y-34420000D03*
%TD*%
D18*
%TO.C,D38*%
X173050000Y-51525000D03*
D17*
X173050000Y-49200000D03*
D19*
X173050000Y-43725000D03*
D17*
X173050000Y-46050000D03*
%TD*%
D18*
%TO.C,D57*%
X17450000Y-88625000D03*
D17*
X17450000Y-86300000D03*
X17450000Y-83150000D03*
D19*
X17450000Y-80825000D03*
%TD*%
D18*
%TO.C,D19*%
X93650000Y-32475000D03*
D17*
X93650000Y-30150000D03*
D19*
X93650000Y-24675000D03*
D17*
X93650000Y-27000000D03*
%TD*%
%TO.C,D23*%
X169850000Y-30150000D03*
D18*
X169850000Y-32475000D03*
D19*
X169850000Y-24675000D03*
D17*
X169850000Y-27000000D03*
%TD*%
D18*
%TO.C,D55*%
X246050000Y-70575000D03*
D17*
X246050000Y-68250000D03*
X246050000Y-65100000D03*
D19*
X246050000Y-62775000D03*
%TD*%
D17*
%TO.C,D10*%
X173050000Y-12100000D03*
D18*
X173050000Y-14425000D03*
D19*
X173050000Y-6625000D03*
D17*
X173050000Y-8950000D03*
%TD*%
%TO.C,D65*%
X207950000Y-86300000D03*
D18*
X207950000Y-88625000D03*
D19*
X207950000Y-80825000D03*
D17*
X207950000Y-83150000D03*
%TD*%
%TO.C,D3*%
X55550000Y-12100000D03*
D18*
X55550000Y-14425000D03*
D19*
X55550000Y-6625000D03*
D17*
X55550000Y-8950000D03*
%TD*%
D22*
%TO.C,R2*%
X153100000Y-6202500D03*
X153100000Y-7397500D03*
%TD*%
D23*
%TO.C,J2*%
X149810000Y-2725000D03*
X155590000Y-2725000D03*
D24*
X149500000Y-3785000D03*
X150300000Y-3785000D03*
D25*
X151450000Y-3785000D03*
X152450000Y-3785000D03*
X152950000Y-3785000D03*
X153950000Y-3785000D03*
D24*
X155100000Y-3785000D03*
X155900000Y-3785000D03*
X155900000Y-3785000D03*
X155100000Y-3785000D03*
D25*
X154450000Y-3785000D03*
X153450000Y-3785000D03*
X151950000Y-3785000D03*
X150950000Y-3785000D03*
D24*
X150300000Y-3785000D03*
X149500000Y-3785000D03*
D26*
X157020000Y-3205000D03*
X148380000Y-3205000D03*
D27*
X148380000Y965000D03*
X157020000Y965000D03*
%TD*%
D18*
%TO.C,D41*%
X246050000Y-51525000D03*
D17*
X246050000Y-49200000D03*
D19*
X246050000Y-43725000D03*
D17*
X246050000Y-46050000D03*
%TD*%
D18*
%TO.C,D53*%
X207950000Y-70575000D03*
D17*
X207950000Y-68250000D03*
X207950000Y-65100000D03*
D19*
X207950000Y-62775000D03*
%TD*%
D17*
%TO.C,D37*%
X169850000Y-49200000D03*
D18*
X169850000Y-51525000D03*
D17*
X169850000Y-46050000D03*
D19*
X169850000Y-43725000D03*
%TD*%
D17*
%TO.C,D4*%
X58750000Y-12100000D03*
D18*
X58750000Y-14425000D03*
D19*
X58750000Y-6625000D03*
D17*
X58750000Y-8950000D03*
%TD*%
%TO.C,D51*%
X169850000Y-68250000D03*
D18*
X169850000Y-70575000D03*
D17*
X169850000Y-65100000D03*
D19*
X169850000Y-62775000D03*
%TD*%
D17*
%TO.C,D54*%
X211150000Y-68250000D03*
D18*
X211150000Y-70575000D03*
D19*
X211150000Y-62775000D03*
D17*
X211150000Y-65100000D03*
%TD*%
D18*
%TO.C,D1*%
X17450000Y-14425000D03*
D17*
X17450000Y-12100000D03*
D19*
X17450000Y-6625000D03*
D17*
X17450000Y-8950000D03*
%TD*%
%TO.C,D11*%
X207950000Y-12100000D03*
D18*
X207950000Y-14425000D03*
D17*
X207950000Y-8950000D03*
D19*
X207950000Y-6625000D03*
%TD*%
D18*
%TO.C,D67*%
X246050000Y-88625000D03*
D17*
X246050000Y-86300000D03*
X246050000Y-83150000D03*
D19*
X246050000Y-80825000D03*
%TD*%
D18*
%TO.C,D46*%
X58750000Y-70575000D03*
D17*
X58750000Y-68250000D03*
D19*
X58750000Y-62775000D03*
D17*
X58750000Y-65100000D03*
%TD*%
%TO.C,D49*%
X131750000Y-68250000D03*
D18*
X131750000Y-70575000D03*
D19*
X131750000Y-62775000D03*
D17*
X131750000Y-65100000D03*
%TD*%
D18*
%TO.C,D68*%
X249250000Y-88625000D03*
D17*
X249250000Y-86300000D03*
D19*
X249250000Y-80825000D03*
D17*
X249250000Y-83150000D03*
%TD*%
%TO.C,D25*%
X207950000Y-30150000D03*
D18*
X207950000Y-32475000D03*
D17*
X207950000Y-27000000D03*
D19*
X207950000Y-24675000D03*
%TD*%
D18*
%TO.C,D12*%
X211150000Y-14425000D03*
D17*
X211150000Y-12100000D03*
X211150000Y-8950000D03*
D19*
X211150000Y-6625000D03*
%TD*%
D18*
%TO.C,D9*%
X169850000Y-14425000D03*
D17*
X169850000Y-12100000D03*
X169850000Y-8950000D03*
D19*
X169850000Y-6625000D03*
%TD*%
D22*
%TO.C,R1*%
X151700000Y-6202500D03*
X151700000Y-7397500D03*
%TD*%
D17*
%TO.C,D60*%
X58750000Y-86300000D03*
D18*
X58750000Y-88625000D03*
D19*
X58750000Y-80825000D03*
D17*
X58750000Y-83150000D03*
%TD*%
%TO.C,D24*%
X173050000Y-30150000D03*
D18*
X173050000Y-32475000D03*
D17*
X173050000Y-27000000D03*
D19*
X173050000Y-24675000D03*
%TD*%
D18*
%TO.C,D40*%
X211150000Y-51525000D03*
D17*
X211150000Y-49200000D03*
X211150000Y-46050000D03*
D19*
X211150000Y-43725000D03*
%TD*%
D17*
%TO.C,D29*%
X17450000Y-49200000D03*
D18*
X17450000Y-51525000D03*
D17*
X17450000Y-46050000D03*
D19*
X17450000Y-43725000D03*
%TD*%
D18*
%TO.C,D42*%
X249250000Y-51525000D03*
D17*
X249250000Y-49200000D03*
X249250000Y-46050000D03*
D19*
X249250000Y-43725000D03*
%TD*%
D17*
%TO.C,D5*%
X93650000Y-12100000D03*
D18*
X93650000Y-14425000D03*
D19*
X93650000Y-6625000D03*
D17*
X93650000Y-8950000D03*
%TD*%
D18*
%TO.C,D63*%
X150800000Y-88625000D03*
D17*
X150800000Y-86300000D03*
D19*
X150800000Y-80825000D03*
D17*
X150800000Y-83150000D03*
%TD*%
%TO.C,D16*%
X20650000Y-30150000D03*
D18*
X20650000Y-32475000D03*
D19*
X20650000Y-24675000D03*
D17*
X20650000Y-27000000D03*
%TD*%
%TO.C,D61*%
X112700000Y-86300000D03*
D18*
X112700000Y-88625000D03*
D17*
X112700000Y-83150000D03*
D19*
X112700000Y-80825000D03*
%TD*%
D17*
%TO.C,D20*%
X96850000Y-30150000D03*
D18*
X96850000Y-32475000D03*
D19*
X96850000Y-24675000D03*
D17*
X96850000Y-27000000D03*
%TD*%
%TO.C,D31*%
X55550000Y-49200000D03*
D18*
X55550000Y-51525000D03*
D19*
X55550000Y-43725000D03*
D17*
X55550000Y-46050000D03*
%TD*%
%TO.C,D47*%
X93650000Y-68250000D03*
D18*
X93650000Y-70575000D03*
D17*
X93650000Y-65100000D03*
D19*
X93650000Y-62775000D03*
%TD*%
D18*
%TO.C,D52*%
X173050000Y-70575000D03*
D17*
X173050000Y-68250000D03*
D19*
X173050000Y-62775000D03*
D17*
X173050000Y-65100000D03*
%TD*%
D28*
%TO.C,R4*%
X119217500Y500000D03*
X118022500Y500000D03*
%TD*%
D18*
%TO.C,D32*%
X58750000Y-51525000D03*
D17*
X58750000Y-49200000D03*
D19*
X58750000Y-43725000D03*
D17*
X58750000Y-46050000D03*
%TD*%
%TO.C,D7*%
X131750000Y-12100000D03*
D18*
X131750000Y-14425000D03*
D17*
X131750000Y-8950000D03*
D19*
X131750000Y-6625000D03*
%TD*%
D18*
%TO.C,D18*%
X58750000Y-32475000D03*
D17*
X58750000Y-30150000D03*
D19*
X58750000Y-24675000D03*
D17*
X58750000Y-27000000D03*
%TD*%
D18*
%TO.C,D48*%
X96850000Y-70575000D03*
D17*
X96850000Y-68250000D03*
D19*
X96850000Y-62775000D03*
D17*
X96850000Y-65100000D03*
%TD*%
%TO.C,D15*%
X17450000Y-30150000D03*
D18*
X17450000Y-32475000D03*
D19*
X17450000Y-24675000D03*
D17*
X17450000Y-27000000D03*
%TD*%
D18*
%TO.C,D44*%
X20650000Y-70575000D03*
D17*
X20650000Y-68250000D03*
D19*
X20650000Y-62775000D03*
D17*
X20650000Y-65100000D03*
%TD*%
%TO.C,D13*%
X246050000Y-12100000D03*
D18*
X246050000Y-14425000D03*
D17*
X246050000Y-8950000D03*
D19*
X246050000Y-6625000D03*
%TD*%
D17*
%TO.C,D43*%
X17450000Y-68250000D03*
D18*
X17450000Y-70575000D03*
D19*
X17450000Y-62775000D03*
D17*
X17450000Y-65100000D03*
%TD*%
D18*
%TO.C,D56*%
X249250000Y-70575000D03*
D17*
X249250000Y-68250000D03*
X249250000Y-65100000D03*
D19*
X249250000Y-62775000D03*
%TD*%
D17*
%TO.C,D66*%
X211150000Y-86300000D03*
D18*
X211150000Y-88625000D03*
D17*
X211150000Y-83150000D03*
D19*
X211150000Y-80825000D03*
%TD*%
D18*
%TO.C,D33*%
X93650000Y-51525000D03*
D17*
X93650000Y-49200000D03*
D19*
X93650000Y-43725000D03*
D17*
X93650000Y-46050000D03*
%TD*%
%TO.C,D35*%
X131750000Y-49200000D03*
D18*
X131750000Y-51525000D03*
D17*
X131750000Y-46050000D03*
D19*
X131750000Y-43725000D03*
%TD*%
D17*
%TO.C,D59*%
X55550000Y-86300000D03*
D18*
X55550000Y-88625000D03*
D19*
X55550000Y-80825000D03*
D17*
X55550000Y-83150000D03*
%TD*%
D18*
%TO.C,D22*%
X134950000Y-32475000D03*
D17*
X134950000Y-30150000D03*
X134950000Y-27000000D03*
D19*
X134950000Y-24675000D03*
%TD*%
D18*
%TO.C,D62*%
X115900000Y-88625000D03*
D17*
X115900000Y-86300000D03*
D19*
X115900000Y-80825000D03*
D17*
X115900000Y-83150000D03*
%TD*%
D18*
%TO.C,D27*%
X246050000Y-32475000D03*
D17*
X246050000Y-30150000D03*
D19*
X246050000Y-24675000D03*
D17*
X246050000Y-27000000D03*
%TD*%
%TO.C,D17*%
X55550000Y-30150000D03*
D18*
X55550000Y-32475000D03*
D19*
X55550000Y-24675000D03*
D17*
X55550000Y-27000000D03*
%TD*%
D18*
%TO.C,D2*%
X20650000Y-14425000D03*
D17*
X20650000Y-12100000D03*
X20650000Y-8950000D03*
D19*
X20650000Y-6625000D03*
%TD*%
D29*
%TO.C,J3*%
X41500000Y-39500000D03*
X41500000Y-36960000D03*
X41500000Y-34420000D03*
%TD*%
D18*
%TO.C,D21*%
X131750000Y-32475000D03*
D17*
X131750000Y-30150000D03*
D19*
X131750000Y-24675000D03*
D17*
X131750000Y-27000000D03*
%TD*%
%TO.C,D45*%
X55550000Y-68250000D03*
D18*
X55550000Y-70575000D03*
D17*
X55550000Y-65100000D03*
D19*
X55550000Y-62775000D03*
%TD*%
M02*
